<svg width="510" height="184" viewBox="0 0 510 184" fill="none" xmlns="http://www.w3.org/2000/svg">
<path d="M63.1533 34.4502C62.5416 26.3353 56.578 21.5888 45.874 21.5888C35.323 21.5888 29.971 26.1821 29.8181 32.4597C29.6652 39.3498 36.3934 42.7182 46.3328 44.8618L55.9663 47.1585C77.2213 51.9049 89.6073 62.4697 89.7602 80.2307C89.6073 101.207 73.3985 113.915 45.874 113.915C18.3496 113.915 0.45874 101.36 0 75.9435H25.0778C25.6895 86.6614 33.641 92.1734 45.5682 92.1734C56.578 92.1734 63.1532 87.2738 63.3062 80.2307C63.1532 73.7999 57.4955 70.4315 45.2624 67.6755L33.641 64.9195C14.5268 60.4792 2.90536 50.9863 2.90536 34.2971C2.75244 13.7801 20.9491 0 46.027 0C71.5635 0 87.9252 13.9332 88.2311 34.4502H63.1533Z" fill="#EDEDED"/>
<path d="M205.047 56.9576C205.047 93.5514 182.11 113.915 152.445 113.915C122.627 113.915 99.843 93.3983 99.843 56.9576C99.843 20.3639 122.627 0 152.445 0C182.11 0 205.047 20.3639 205.047 56.9576ZM178.44 56.9576C178.44 34.9095 168.654 22.9668 152.445 22.9668C136.236 22.9668 126.45 34.9095 126.45 56.9576C126.45 79.0058 136.236 90.9485 152.445 90.9485C168.654 90.9485 178.44 79.0058 178.44 56.9576Z" fill="#EDEDED"/>
<path d="M216.497 112.384V1.53112H261.759C286.684 1.53112 301.976 15.6174 301.976 38.278C301.976 53.5126 295.018 64.4601 282.861 69.9722L303.954 112.384H277.356L257.019 74.2593H242.492V112.384H216.497ZM242.492 53.4361H256.254C268.487 53.4361 275.063 48.6896 275.063 38.278C275.063 27.8664 268.487 22.6606 256.254 22.6606H242.492V53.4361Z" fill="#EDEDED"/>
<path d="M317.654 112.384V1.53112H362.916C387.841 1.53112 403.133 15.6174 403.133 38.278C403.133 53.5126 396.175 64.4601 384.018 69.9722L407.108 112.384H378.513L358.176 74.2593H343.649V112.384H317.654ZM343.649 53.4361H357.411C369.645 53.4361 376.22 48.6896 376.22 38.278C376.22 27.8664 369.645 22.6606 357.411 22.6606H343.649V53.4361Z" fill="#EDEDED"/>
<path d="M404.112 1.53112H433.319L457.173 48.0771H458.091L481.945 1.53112H510L470.63 74.8717V112.384H444.634V74.8717L404.112 1.53112Z" fill="#EDEDED"/>
<ellipse cx="266" cy="176.008" rx="55" ry="8" fill="#333333" fill-opacity="0.15"/>
<path d="M279.645 166.317L280.197 166.716C280.385 165.155 280.526 163.523 280.631 161.845C280.326 163.429 279.998 164.92 279.645 166.317ZM222.454 146.877C222.947 145.868 223.393 144.882 223.78 143.919C224.156 142.886 224.484 141.888 224.766 140.891C224.355 141.795 223.956 142.757 223.569 143.755C223.111 144.929 222.653 146.161 222.184 147.453C222.266 147.241 222.36 147.054 222.465 146.866L222.454 146.877Z" fill="black"/>
<path d="M311.305 172.61C312.831 172.399 314.157 171.847 315.261 170.931C316.869 169.581 317.186 167.879 316.211 165.825C314.486 162.644 312.103 160.988 309.062 160.871C306.926 160.765 305.165 161.223 303.768 162.233C302.136 163.454 299.577 164.357 296.079 164.968C291.055 165.884 286.899 165.167 283.589 162.831C280.173 160.437 276.464 158.723 272.437 157.678C269.479 156.915 267.237 156.645 265.699 156.845C262.635 157.255 260.663 157.631 259.771 157.948C256.836 159.04 255.545 160.883 255.885 163.454C256.226 166.024 257.083 167.539 258.456 168.079C259.125 168.349 259.759 168.372 260.358 168.126C264.279 167.398 268.211 167.445 272.179 168.267C275.36 168.959 278.764 170.227 282.403 172.058C287.075 174.406 291.994 175.239 297.171 174.535L311.293 172.622L311.305 172.61Z" fill="white"/>
<path d="M292.703 165.271C293.807 167.807 294.499 170.929 294.769 174.639C295.333 174.639 296.084 174.556 297.035 174.427L301.038 173.887C300.58 170.072 299.594 166.903 298.056 164.391C296.401 164.884 294.617 165.177 292.703 165.271Z" fill="black"/>
<path d="M303.18 162.467C305.41 164.251 307.054 167.749 308.087 172.95L311.162 172.527C312.688 172.316 314.015 171.764 315.118 170.849C316.726 169.499 317.043 167.796 316.069 165.742C314.343 162.561 311.96 160.906 308.932 160.788C306.795 160.683 305.034 161.141 303.638 162.15L303.18 162.455V162.467Z" fill="black"/>
<path d="M283.455 162.742H283.408C283.091 165.548 282.058 168.306 280.297 171.03L282.269 171.957C283.912 172.791 285.638 173.46 287.469 173.941C288.69 170.983 289.218 168.013 289.042 165.02C286.941 164.679 285.075 163.916 283.455 162.742Z" fill="black"/>
<path d="M264.35 156.867C258.152 157.607 255.288 159.767 255.781 163.359C256.121 165.894 256.978 167.444 258.352 167.984C259.021 168.254 259.655 168.277 260.253 168.031L262.789 167.632C261.697 163.993 262.226 160.412 264.362 156.867H264.35Z" fill="black"/>
<path d="M277.163 159.265C275.015 158.326 272.797 157.634 270.508 157.188C269.322 159.97 268.606 163.456 268.348 167.635C270.707 167.882 272.973 168.351 275.156 169.055C276.401 166.039 277.07 162.775 277.163 159.277V159.265Z" fill="black"/>
<path d="M293.176 175.843C289.126 175.843 285.229 174.892 281.519 173.014C277.962 171.241 274.582 169.997 271.459 169.305C267.644 168.518 263.805 168.471 260.026 169.164C259.262 169.457 258.453 169.434 257.619 169.117C255.964 168.436 254.943 166.663 254.567 163.846C254.285 161.803 254.813 159.033 258.957 157.495C259.92 157.167 261.904 156.814 265.05 156.38C266.693 156.157 268.994 156.427 272.081 157.214C276.178 158.27 280.005 160.043 283.468 162.484C285.745 164.093 288.598 164.938 291.861 164.879C294.28 164.832 296.85 164.327 299.492 163.4C299.891 163.259 300.337 163.47 300.478 163.869C300.619 164.269 300.407 164.715 300.008 164.856C297.214 165.842 294.479 166.37 291.885 166.429C291.826 166.429 291.767 166.429 291.697 166.429C288.14 166.429 285.076 165.525 282.564 163.752C279.254 161.416 275.591 159.714 271.682 158.716C268.83 157.988 266.658 157.73 265.238 157.918C262.232 158.317 260.296 158.669 259.462 158.951C256.856 159.925 255.776 161.416 256.093 163.646C256.386 165.877 257.091 167.239 258.182 167.685C258.652 167.861 259.098 167.872 259.521 167.696C259.568 167.673 259.615 167.661 259.662 167.649C263.653 166.91 267.726 166.957 271.764 167.79C275.016 168.506 278.526 169.798 282.2 171.629C286.696 173.918 291.521 174.728 296.522 174.059L310.644 172.134C312.017 171.946 313.226 171.441 314.212 170.619C315.562 169.504 315.809 168.166 314.975 166.429C313.379 163.494 311.254 162.015 308.495 161.921C306.547 161.815 304.927 162.226 303.706 163.13L302.602 163.74C302.227 163.952 301.757 163.811 301.558 163.435C301.346 163.06 301.487 162.59 301.863 162.39L302.872 161.827C304.305 160.759 306.253 160.254 308.566 160.371C311.864 160.477 314.494 162.285 316.36 165.724C317.511 168.142 317.1 170.22 315.21 171.805C314.001 172.815 312.533 173.437 310.867 173.671L296.745 175.597C295.547 175.761 294.35 175.843 293.176 175.843Z" fill="black"/>
<path d="M224.796 140.745C224.796 140.745 224.761 140.851 224.737 140.898C224.221 142.87 223.458 144.866 222.46 146.885C222.366 147.084 222.272 147.26 222.178 147.436C220.805 150.23 219.877 152.379 219.372 153.881C218.551 156.323 218.175 158.729 218.257 161.101C218.339 163.284 218.715 165.256 219.372 167.017C219.725 167.897 220.053 168.555 220.358 168.989L221.497 171.583L219.795 173.004C218.926 173.966 218.621 174.765 218.868 175.375C219.114 176.021 219.501 176.396 220.006 176.514C220.511 176.631 221.016 176.713 221.521 176.76H239.129C239.54 176.784 239.939 176.69 240.326 176.478C241.101 176.091 241.488 175.445 241.465 174.53C241.453 173.614 241.594 172.945 241.899 172.499C242.228 172.053 242.686 171.63 243.284 171.231C243.907 170.844 244.529 170.128 245.163 169.106L245.221 169.013C244.599 168.954 243.93 168.907 243.214 168.883C243.93 168.907 244.599 168.942 245.221 169.013C247.346 169.212 248.86 169.611 249.753 170.21L250.645 171.102C251.22 171.759 251.443 172.264 251.326 172.616C251.267 172.781 250.797 173.215 249.94 173.908C249.224 174.483 248.907 175.058 249.013 175.633C249.142 176.267 249.576 176.643 250.34 176.748C250.809 176.795 251.701 176.784 253.028 176.713H275.085C275.707 176.091 276.388 174.952 277.151 173.285C278.102 171.29 278.924 168.942 279.616 166.254C279.968 164.869 280.297 163.39 280.567 161.817C280.649 161.441 280.72 161.065 280.778 160.678C281.248 157.872 281.448 154.961 281.365 151.944C281.318 149.139 281.025 146.251 280.497 143.281C280.379 142.624 280.262 141.99 280.121 141.367C279.346 137.529 278.384 134.571 277.257 132.516C276.47 131.096 275.261 129.077 273.618 126.471L271.399 122.984H229.174L224.761 140.722L224.796 140.745Z" fill="white"/>
<path d="M251.143 177.567C250.791 177.567 250.509 177.568 250.298 177.544C248.795 177.344 248.384 176.37 248.278 175.818C248.126 174.938 248.525 174.105 249.476 173.342C250.18 172.778 250.474 172.496 250.591 172.367C250.556 172.285 250.438 172.05 250.086 171.639L249.276 170.841C248.548 170.372 247.328 170.043 245.625 169.855C244.968 170.841 244.358 171.498 243.724 171.909C243.195 172.25 242.808 172.602 242.55 172.966C242.397 173.177 242.233 173.623 242.245 174.551C242.268 175.76 241.728 176.675 240.672 177.192C240.179 177.45 239.639 177.579 239.087 177.544H221.514C220.915 177.497 220.375 177.403 219.823 177.274C219.295 177.145 218.567 176.769 218.145 175.678C217.781 174.762 218.145 173.682 219.213 172.485L220.551 171.358L219.671 169.362C219.342 168.881 219.002 168.2 218.638 167.296C217.945 165.441 217.558 163.375 217.476 161.121C217.393 158.68 217.781 156.156 218.626 153.632C219.131 152.106 220.093 149.911 221.467 147.105L221.749 146.53C222.723 144.57 223.474 142.597 223.991 140.684L224.777 140.731L224.026 140.543L228.44 122.806C228.522 122.465 228.839 122.219 229.191 122.219H271.416C271.674 122.219 271.921 122.36 272.061 122.571L274.28 126.057C275.923 128.675 277.156 130.718 277.943 132.15C279.105 134.263 280.102 137.315 280.901 141.224C281.018 141.858 281.147 142.492 281.265 143.161C281.793 146.166 282.098 149.113 282.157 151.942C282.227 154.982 282.016 157.964 281.546 160.816C281.476 161.204 281.417 161.591 281.347 161.967C281.053 163.551 280.725 165.077 280.361 166.474C279.656 169.186 278.811 171.592 277.837 173.635C277.039 175.396 276.311 176.581 275.618 177.274C275.477 177.415 275.278 177.497 275.078 177.497H253.021C252.246 177.532 251.612 177.556 251.108 177.556L251.143 177.567ZM245.32 168.259C247.598 168.47 249.206 168.904 250.215 169.585C250.251 169.609 250.298 169.644 250.333 169.679L251.225 170.571C251.753 171.182 252.387 172.027 252.082 172.884C251.976 173.154 251.8 173.424 250.45 174.527C250.121 174.797 249.734 175.173 249.804 175.525C249.84 175.678 249.887 175.924 250.474 176.006C250.732 176.03 251.424 176.041 253.021 175.971H274.773C275.278 175.372 275.841 174.375 276.475 173.001C277.403 171.041 278.213 168.728 278.893 166.11C279.246 164.749 279.563 163.258 279.856 161.708C279.926 161.344 279.985 160.957 280.056 160.581C280.513 157.834 280.713 154.947 280.642 152C280.584 149.253 280.29 146.377 279.774 143.454C279.656 142.797 279.539 142.163 279.422 141.553C278.659 137.808 277.708 134.908 276.616 132.925C275.841 131.528 274.632 129.509 273 126.914L271.005 123.792H229.801L225.54 140.942C225.517 141.024 225.493 141.095 225.482 141.154C224.953 143.114 224.167 145.18 223.146 147.234L222.875 147.798C221.526 150.545 220.586 152.681 220.105 154.137C219.319 156.485 218.955 158.821 219.037 161.086C219.119 163.176 219.471 165.077 220.105 166.768C220.422 167.578 220.727 168.188 220.997 168.564C221.033 168.611 221.056 168.658 221.079 168.705L222.218 171.299C222.359 171.616 222.265 171.98 222.007 172.203L220.305 173.623C219.765 174.245 219.471 174.821 219.6 175.138C219.823 175.713 220.093 175.771 220.199 175.795C220.669 175.901 221.15 175.983 221.608 176.03H239.146C239.451 176.041 239.721 175.983 239.991 175.842C240.519 175.584 240.73 175.208 240.719 174.598C240.695 173.506 240.895 172.696 241.306 172.109C241.681 171.581 242.209 171.088 242.902 170.642C243.207 170.442 243.524 170.149 243.841 169.738C243.642 169.738 243.43 169.714 243.219 169.714L238.758 169.808C238.324 169.773 237.983 169.479 237.972 169.057C237.96 168.634 238.3 168.282 238.723 168.27L243.231 168.176C244.005 168.2 244.686 168.247 245.32 168.306V168.259Z" fill="black"/>
<path d="M280.529 143.318C280.411 142.661 280.294 142.027 280.153 141.405C278.439 140.571 276.432 140.196 274.108 140.266C271.255 140.313 269.482 141.041 268.802 142.461C268.168 143.753 269.013 145.314 271.325 147.145C273.262 148.671 275.857 150.115 279.132 151.489C279.93 151.852 280.681 152.017 281.386 151.982C281.339 149.176 281.045 146.288 280.517 143.318H280.529Z" fill="black"/>
<path d="M274.829 155.309C272.035 154.523 270.485 154.934 270.203 156.542C269.851 158.103 270.685 159.664 272.704 161.226L279.642 166.285C279.994 164.9 280.322 163.421 280.592 161.848C280.675 160.498 280.733 159.101 280.745 157.657C278.632 156.565 276.648 155.791 274.829 155.309Z" fill="black"/>
<path d="M221.22 156.23C221.173 155.28 220.691 154.528 219.776 153.953C219.236 156.137 218.79 158.649 218.414 161.513C219.424 160.973 220.163 160.163 220.633 159.071C221.044 158.12 221.243 157.181 221.22 156.23Z" fill="black"/>
<path d="M222.45 146.881C222.356 147.081 222.262 147.257 222.168 147.433C222.11 147.585 222.063 147.726 222.016 147.867C223.988 146.916 225.819 145.613 227.509 143.946C229.2 142.279 229.916 141.012 229.669 140.119C229.446 139.462 228.965 139.086 228.225 138.981C227.873 138.957 227.028 138.91 225.702 138.828C225.385 139.486 225.068 140.178 224.751 140.894C224.234 142.866 223.471 144.862 222.473 146.881H222.45Z" fill="black"/>
<path d="M223.778 124.758L221.43 126.46C219.845 128.103 219.012 130.205 218.929 132.752C218.8 136.438 219.763 139.514 221.794 142.002C222.322 142.648 222.909 143.223 223.555 143.728C223.625 143.786 223.684 143.845 223.742 143.88C225.045 144.878 226.56 145.63 228.309 146.134L231.666 125.838L223.766 124.758H223.778Z" fill="white"/>
<path d="M228.306 146.917C228.235 146.917 228.165 146.917 228.094 146.881C226.263 146.353 224.643 145.555 223.293 144.51C223.223 144.463 223.152 144.405 223.07 144.346C222.389 143.806 221.767 143.184 221.204 142.491C219.055 139.862 218.034 136.586 218.163 132.724C218.257 129.989 219.161 127.7 220.875 125.928C220.91 125.892 220.945 125.869 220.981 125.834L223.328 124.143C223.493 124.026 223.68 123.967 223.88 124.002L231.78 125.082C232.203 125.141 232.496 125.528 232.438 125.951C232.379 126.374 231.992 126.679 231.569 126.608L223.974 125.575L221.931 127.043C220.499 128.557 219.771 130.424 219.689 132.771C219.572 136.246 220.476 139.181 222.389 141.517C222.882 142.115 223.434 142.667 224.033 143.148L224.209 143.289C225.418 144.217 226.862 144.933 228.505 145.402C228.916 145.52 229.151 145.942 229.033 146.353C228.939 146.694 228.622 146.917 228.294 146.917H228.306Z" fill="black"/>
<path d="M266.341 37.9727C266.341 37.9727 266.4 37.9727 266.435 37.9727C269.206 37.9727 271.588 39.0292 273.561 41.1539C275.497 43.2904 276.46 45.8847 276.46 48.9251V49.1716C276.46 49.1716 276.46 49.242 276.46 49.2655C276.46 49.3007 276.46 49.3359 276.46 49.3594C276.46 49.3829 276.46 49.4063 276.46 49.4181L276.178 51.5428C276.038 52.2354 275.826 52.8928 275.556 53.5149C275.087 54.6536 274.418 55.7101 273.549 56.661C271.577 58.7975 269.205 59.8657 266.423 59.8657C263.641 59.8657 261.329 58.7975 259.392 56.661C257.42 54.5245 256.434 51.942 256.434 48.9133C256.434 47.7512 256.574 46.6595 256.868 45.6147C257.22 44.3586 257.795 43.1848 258.594 42.093C258.84 41.7761 259.098 41.4474 259.392 41.1422C259.85 40.6374 260.343 40.1796 260.871 39.7805C262.385 38.6301 264.123 38.0196 266.083 37.9609C266.118 37.9609 266.165 37.9609 266.212 37.9609C266.247 37.9609 266.283 37.9609 266.341 37.9609V37.9727Z" fill="white"/>
<path d="M275.567 54.3067C275.473 54.3067 275.367 54.2832 275.261 54.248C274.874 54.0836 274.686 53.6258 274.85 53.2384C275.097 52.6515 275.285 52.0411 275.426 51.4072L275.696 49.3411L276.459 49.2824L275.684 49.165V48.9302C275.684 46.1012 274.78 43.6595 272.984 41.6756C271.153 39.7152 269.005 38.7527 266.434 38.7527H266.199C264.332 38.8114 262.724 39.3748 261.327 40.4313C261.186 40.5252 261.069 40.6191 260.952 40.713C260.294 41.2648 259.696 41.8987 259.203 42.5795C258.475 43.5773 257.935 44.669 257.606 45.8429C257.489 46.2538 257.066 46.5003 256.655 46.3829C256.244 46.2655 255.998 45.8429 256.115 45.4321C256.491 44.0704 257.113 42.8026 257.946 41.6639C258.522 40.8774 259.203 40.1496 259.966 39.5039C260.118 39.3865 260.259 39.2809 260.4 39.1752C262.032 37.9427 263.945 37.2618 266.046 37.2031H266.175H266.293C269.392 37.2031 271.974 38.3535 274.087 40.6309C276.153 42.92 277.198 45.7021 277.198 48.9302V49.3059L276.423 49.3646L277.198 49.4233L276.917 51.6654C276.752 52.4519 276.529 53.168 276.247 53.8371C276.118 54.1306 275.837 54.3067 275.531 54.3067H275.567Z" fill="black"/>
<path d="M209.492 74.4662C209.785 73.1045 210.114 71.8015 210.478 70.5454C208.835 75.5814 208.072 80.6174 208.201 85.6651C208.259 81.803 208.694 78.0701 209.492 74.4662ZM287.837 85.5947C287.896 82.0378 287.45 78.4692 286.475 74.8888C287.297 78.2579 287.755 81.8265 287.837 85.5947ZM279.89 60.767C280.324 61.3891 280.747 62.0113 281.158 62.6452C281.252 62.7743 281.334 62.9152 281.404 63.0443C280.935 62.2461 280.43 61.4831 279.89 60.767ZM245.061 46.3047L239.203 46.6803C238.546 46.739 237.9 46.8212 237.254 46.9268C227.769 48.4294 220.562 52.7376 215.596 59.8514C215.408 60.1213 215.221 60.4031 215.044 60.72L214.493 61.5887L212.333 65.6856C212.122 66.1786 211.922 66.6716 211.711 67.1646C211.57 67.5403 211.417 67.8925 211.276 68.2446L210.478 70.5572C210.102 71.8133 209.774 73.1163 209.492 74.478C208.694 78.0818 208.259 81.803 208.201 85.6769C208.224 86.4399 208.259 87.2146 208.33 87.9894C204.632 91.1941 202.777 97.1692 202.777 105.915C202.777 115.212 207.872 121.821 218.05 125.753C221.196 126.962 224.694 127.843 228.532 128.371L230.293 128.524V127.573H234.085V128.594H242.255V128.805H257.34C259.887 128.759 262.446 128.594 265.017 128.277C266.191 128.136 267.353 127.96 268.503 127.749L274.42 126.516C275.3 126.27 276.192 126.012 277.073 125.742C278.352 125.354 279.561 124.955 280.712 124.544L285.055 122.631C285.114 122.584 285.173 122.56 285.208 122.537C285.677 122.29 286.135 122.044 286.569 121.797C293.026 118.053 296.442 112.981 296.806 106.56V105.915C296.806 101.7 296.113 98.0848 294.74 95.0562C293.237 91.6989 290.889 89.3511 287.708 87.9894C287.767 87.1911 287.814 86.393 287.837 85.6182C287.755 81.85 287.297 78.2931 286.475 74.9123L284.656 69.3598C284.351 68.6437 284.022 67.9159 283.67 67.1646C283.646 67.106 283.623 67.0355 283.576 66.9768L281.381 63.056C281.31 62.9269 281.228 62.7861 281.134 62.6569C280.723 62.023 280.301 61.3891 279.867 60.7787C272.53 51.1528 261.859 46.3516 247.855 46.3751H247.643C247.538 46.3516 247.432 46.3399 247.338 46.3399H246.81C246.622 46.3164 246.434 46.3047 246.258 46.3047C245.953 46.3047 245.636 46.3047 245.331 46.3047C245.284 46.3047 245.237 46.3047 245.178 46.3047C245.131 46.3047 245.096 46.3047 245.049 46.3047H245.061Z" fill="white"/>
<path d="M230.291 129.276C230.291 129.276 230.244 129.276 230.22 129.276L228.459 129.124C224.527 128.584 220.947 127.68 217.765 126.459C207.306 122.421 202 115.507 202 105.904C202 96.971 203.96 90.7494 207.822 87.4038C208.139 87.122 208.632 87.1573 208.914 87.486C209.196 87.8029 209.161 88.2959 208.832 88.5777C205.322 91.618 203.55 97.4523 203.55 105.916C203.55 114.943 208.386 121.188 218.329 125.027C221.404 126.213 224.879 127.081 228.647 127.609L230.361 127.762C230.784 127.797 231.101 128.173 231.065 128.596C231.03 128.995 230.69 129.3 230.302 129.3L230.291 129.276ZM265.014 129.03C264.627 129.03 264.298 128.748 264.251 128.349C264.204 127.926 264.498 127.539 264.92 127.492C266.082 127.351 267.245 127.175 268.36 126.976L274.264 125.743C276.46 125.18 278.537 124.534 280.439 123.806L284.7 121.94C284.771 121.893 284.829 121.857 284.876 121.834C285.334 121.599 285.769 121.353 286.191 121.118C292.46 117.479 295.688 112.701 296.04 106.503V105.998C296.04 101.819 295.371 98.274 294.044 95.3628C292.624 92.205 290.394 89.9629 287.412 88.6951C287.025 88.5308 286.837 88.0729 287.001 87.6855C287.165 87.2981 287.623 87.1103 288.011 87.2747C291.368 88.7068 293.868 91.2072 295.441 94.7288C296.862 97.8396 297.578 101.596 297.578 105.904V106.456C297.578 106.456 297.578 106.573 297.578 106.597C297.19 113.253 293.622 118.594 286.954 122.456C286.508 122.714 286.05 122.961 285.569 123.207C285.534 123.231 285.416 123.301 285.369 123.325L281.014 125.238C279.03 126.001 276.882 126.67 274.605 127.257L268.653 128.502C267.479 128.713 266.294 128.889 265.108 129.042C265.073 129.042 265.049 129.042 265.014 129.042V129.03ZM208.198 86.4295H208.186C207.764 86.4295 207.423 86.0773 207.423 85.6429C207.482 81.7456 207.928 77.9188 208.738 74.2915C209.032 72.9298 209.36 71.5915 209.736 70.3237C209.736 70.3237 209.736 70.312 209.736 70.3003C209.736 70.3003 209.736 70.2885 209.736 70.2768L210.534 67.9642C210.875 67.0604 211.227 66.1799 211.602 65.3347L213.786 61.1909L214.373 60.2635C214.549 59.9583 214.748 59.6531 214.936 59.3831C215.183 59.0309 215.652 58.9488 216.004 59.1836C216.357 59.4301 216.439 59.9114 216.204 60.2518C216.028 60.5101 215.852 60.78 215.676 61.0735L215.112 61.9539L212.988 65.9921C212.647 66.7551 212.295 67.6003 211.978 68.4573L211.192 70.7346C210.828 71.9554 210.511 73.2467 210.229 74.5732C209.442 78.1066 209.008 81.8279 208.949 85.6195C208.949 86.0421 208.597 86.3825 208.175 86.3825L208.198 86.4295ZM287.835 86.3708C287.412 86.3708 287.072 86.0304 287.06 85.6195C286.978 81.9453 286.532 78.4001 285.733 75.1132L283.926 69.5842C283.644 68.9385 283.315 68.2108 282.975 67.483C282.975 67.4712 282.916 67.3656 282.904 67.3421L280.498 63.0809C280.087 62.447 279.676 61.8248 279.254 61.2261C272.116 51.882 261.587 47.1395 247.946 47.1395H247.641C247.641 47.1395 247.535 47.1395 247.488 47.1278C247.441 47.1278 247.382 47.116 247.336 47.116H246.807C246.561 47.0925 246.408 47.0808 246.256 47.0808H245.058L239.247 47.4447C238.625 47.5034 238.003 47.5856 237.381 47.6795C236.958 47.7499 236.571 47.4564 236.501 47.0456C236.43 46.6347 236.724 46.2356 237.134 46.1652C237.792 46.0595 238.449 45.9773 239.13 45.9069L246.267 45.5312C246.479 45.5312 246.69 45.543 246.913 45.5665H247.347C247.476 45.5665 247.594 45.5665 247.723 45.5899H247.958C262.103 45.5899 273.055 50.532 280.498 60.2988C280.498 60.2988 280.498 60.2987 280.498 60.3105C280.498 60.3105 280.498 60.3222 280.51 60.334C280.944 60.9561 281.366 61.59 281.789 62.2357L282.047 62.623C282.047 62.623 282.059 62.6465 282.071 62.6583C282.071 62.6583 282.083 62.6817 282.094 62.6935L284.266 66.6025C284.313 66.6612 284.372 66.7903 284.419 66.9195C284.736 67.5886 285.076 68.3164 285.381 69.0442L287.224 74.6554C287.224 74.6554 287.224 74.6789 287.236 74.6906C287.248 74.7023 287.236 74.7141 287.236 74.7258C288.069 78.1301 288.527 81.7926 288.609 85.5843C288.609 86.0069 288.281 86.359 287.858 86.3708C287.858 86.3708 287.858 86.3708 287.846 86.3708H287.835Z" fill="black"/>
<path d="M261.999 54.6027C261.917 53.4053 262.41 52.5719 263.478 52.1023C264.112 51.8323 264.757 51.8206 265.391 52.0671C266.025 52.3371 266.495 52.7714 266.777 53.3936L267.234 54.591H272.881C273.585 54.591 274.16 54.8492 274.642 55.3657C275.135 55.8235 275.381 56.3988 275.381 57.0913C275.381 57.7839 275.135 58.3591 274.642 58.8522C274.172 59.3452 273.585 59.5917 272.881 59.5917H268.596C268.819 60.7069 269.042 62.0334 269.242 63.6064H271.895C272.552 63.6064 273.127 63.8529 273.62 64.346C274.137 64.8625 274.395 65.4494 274.395 66.1068C274.395 66.8111 274.137 67.4098 273.62 67.9263C273.127 68.3841 272.552 68.6072 271.895 68.6072H269.676L269.735 69.4993C269.782 70.2037 269.559 70.8023 269.089 71.3188C268.619 71.8119 268.033 72.0819 267.328 72.1171H267.234C266.577 72.1171 265.99 71.8823 265.474 71.4127C265.016 70.9432 264.769 70.3797 264.734 69.7106L264.675 68.5954H259.921C259.217 68.5954 258.63 68.3724 258.137 67.9146C257.667 67.3981 257.432 66.7994 257.432 66.095C257.432 65.4377 257.667 64.8507 258.137 64.3342C258.63 63.8412 259.228 63.5947 259.921 63.5947H264.182C264.053 62.3034 263.818 60.9652 263.478 59.58H256.071C255.366 59.58 254.779 59.3335 254.286 58.8404C253.817 58.3474 253.582 57.7604 253.582 57.0796C253.582 56.3987 253.817 55.8001 254.286 55.354C254.779 54.8375 255.378 54.5792 256.071 54.5792H261.987L261.999 54.6027Z" fill="black"/>
<path d="M293.717 93.5468C294.069 93.6524 294.41 93.805 294.738 94.0046C295.431 95.6715 295.982 97.7141 296.382 100.144C296.123 99.921 295.478 99.2401 294.445 98.1132C293.33 96.9393 292.32 96.012 291.416 95.3429C290.594 94.7207 290.395 94.1807 290.829 93.7111C291.299 93.1711 292.261 93.1242 293.717 93.5585V93.5468Z" fill="black"/>
<path d="M294.443 115.305C293.457 112.817 292.8 110.962 292.483 109.753C291.931 107.558 292.33 106.56 293.668 106.759C294.654 106.924 295.629 107.475 296.603 108.426C296.298 110.95 295.582 113.251 294.443 115.305Z" fill="black"/>
<path d="M221.614 116.202C220.3 114.97 220.217 113.514 221.368 111.824C222.542 110.051 224.843 108.314 228.282 106.612C229.984 105.743 231.968 105.121 234.234 104.733C236.534 104.322 237.779 104.405 237.967 104.98C238.178 105.52 237.509 106.459 235.994 107.821C235.314 108.419 234.011 109.441 232.074 110.873C231.369 111.366 229.714 112.751 227.073 115.04C224.549 116.871 222.729 117.259 221.614 116.214V116.202Z" fill="black"/>
<path d="M219.267 100.774C219.596 99.6237 220.301 98.5672 221.369 97.5928C223.2 95.9024 226.287 94.5056 230.619 93.4021C232.157 92.9678 234.598 92.6978 237.932 92.5686C239.376 92.5217 240.174 92.7447 240.339 93.2143C240.468 93.6721 239.928 94.1768 238.731 94.7521C237.768 95.2451 236.113 95.9612 233.765 96.912C231.652 97.8746 229.985 98.8255 228.764 99.7528C224.08 103.498 221.017 104.671 219.573 103.274C218.997 102.734 218.892 101.913 219.267 100.774Z" fill="black"/>
<path d="M269.422 89.9669C269.528 89.7087 269.786 89.4739 270.197 89.2626C270.901 88.9105 271.864 88.7344 273.096 88.7344C274.305 88.7344 275.115 88.9105 275.503 89.2626C275.737 89.4622 275.867 89.7439 275.902 90.1313C274.845 90.0022 273.531 89.9435 271.958 89.9435C271.042 89.9435 270.197 89.9435 269.434 89.9787M269.363 90.3074C269.363 90.2018 269.387 90.0843 269.422 89.9669C270.185 89.9435 271.03 89.9318 271.946 89.9318C273.519 89.9318 274.834 89.9904 275.89 90.1196V90.3074C275.89 90.7418 275.644 91.1761 275.151 91.5987C274.528 92.1387 273.848 92.3969 273.085 92.3969C272.286 92.3969 271.453 92.1269 270.584 91.5987C269.762 91.1056 269.352 90.6713 269.352 90.3074H269.363Z" fill="black"/>
<path d="M269.423 89.9609C269.376 90.0783 269.365 90.1958 269.365 90.3014C269.365 90.6771 269.776 91.0996 270.597 91.5927C271.466 92.1326 272.299 92.3909 273.098 92.3909C273.896 92.3909 274.542 92.1209 275.164 91.5927C275.657 91.1583 275.903 90.724 275.903 90.3014V90.1135C276.608 90.1957 277.195 90.3132 277.664 90.454C280.235 91.1114 281.796 92.567 282.348 94.7973C282.947 97.1569 282.571 99.0116 281.233 100.35C280.106 101.477 278.545 102.052 276.549 102.052C275.093 102.052 273.884 101.465 272.945 100.291C272.452 99.7159 272.123 99.129 271.959 98.5303L270.351 100.291C268.989 101.465 267.58 102.052 266.09 102.052C264.094 102.052 262.533 101.489 261.406 100.35C260.068 99.0116 259.704 97.1569 260.291 94.7973C260.831 92.5552 262.568 91.1114 265.538 90.454C266.477 90.2192 267.768 90.0548 269.423 89.9609Z" fill="white"/>
<path d="M276.548 102.832C274.858 102.832 273.438 102.151 272.346 100.79C272.111 100.508 271.9 100.226 271.724 99.9325L270.925 100.813C270.925 100.813 270.902 100.836 270.89 100.848C270.878 100.86 270.867 100.872 270.843 100.883C269.352 102.175 267.756 102.82 266.089 102.82C263.894 102.82 262.133 102.175 260.853 100.895C259.316 99.3573 258.881 97.2444 259.539 94.6149C260.149 92.0793 262.098 90.4241 265.349 89.6963C266.347 89.4497 267.662 89.2854 269.376 89.2033C270.151 89.168 271.008 89.1562 271.935 89.1562C273.543 89.1562 274.893 89.215 275.973 89.3441C276.724 89.438 277.335 89.5554 277.84 89.708C280.68 90.4358 282.441 92.091 283.063 94.6149C283.733 97.2561 283.286 99.3691 281.749 100.907C280.469 102.186 278.708 102.832 276.513 102.832H276.548ZM273.543 99.8269C274.341 100.813 275.328 101.294 276.548 101.294C278.344 101.294 279.706 100.813 280.692 99.8269C281.831 98.6882 282.124 97.1152 281.596 95.0139C281.115 93.0535 279.765 91.8092 277.464 91.2223C277.464 91.2223 277.464 91.2223 277.452 91.2223H277.429C277.006 91.0932 276.466 90.9875 275.809 90.9171C274.788 90.7997 273.496 90.741 271.947 90.741C271.043 90.741 270.209 90.7528 269.446 90.788C267.862 90.8701 266.605 91.0228 265.713 91.2458C265.713 91.2458 265.702 91.2458 265.69 91.2458C263.025 91.8445 261.499 93.077 261.03 95.0257C260.501 97.1387 260.795 98.7117 261.933 99.8504C262.92 100.836 264.281 101.318 266.077 101.318C267.369 101.318 268.578 100.813 269.799 99.78L271.36 98.0661C271.36 98.0661 271.465 97.9604 271.536 97.9252C271.618 97.8783 271.7 97.843 271.794 97.8313C271.9 97.8078 272.005 97.8196 272.111 97.8313C272.217 97.8548 272.311 97.9017 272.405 97.9722C272.475 98.0308 272.545 98.1013 272.592 98.1834C272.628 98.2421 272.663 98.3126 272.674 98.3831C272.804 98.8644 273.085 99.3456 273.496 99.8269H273.543Z" fill="black"/>
<path d="M214.546 55.1193C214.652 55.2719 214.758 55.4127 214.887 55.5536C214.405 54.9784 214.018 54.3562 213.713 53.6988C213.948 54.1801 214.229 54.6614 214.546 55.1193ZM234.538 49.5081C234.397 52.2785 233.329 54.6614 231.333 56.6688C229.22 58.8052 226.637 59.8735 223.585 59.8735C222.13 59.8735 220.768 59.627 219.512 59.1339C218.561 58.7583 217.681 58.23 216.859 57.5609C216.507 57.2909 216.166 56.9974 215.838 56.6688C215.697 56.5279 215.568 56.387 215.439 56.2344L214.887 55.5536C214.769 55.4127 214.652 55.2719 214.546 55.1193C214.229 54.6614 213.948 54.1919 213.713 53.6988C213.02 52.1493 212.645 50.588 212.598 49.015V48.9211C212.598 45.8808 213.678 43.2864 215.838 41.15C217.974 39.037 220.557 37.9688 223.585 37.9688C226.626 37.9688 229.208 39.0252 231.333 41.15C233.469 43.2864 234.538 45.8808 234.538 48.9211V49.5081Z" fill="white"/>
<path d="M219.513 59.9061C219.419 59.9061 219.325 59.8826 219.231 59.8474C218.222 59.4483 217.259 58.8848 216.367 58.1805C215.827 57.7579 215.322 57.2766 214.865 56.7601C214.865 56.7601 214.865 56.7601 214.853 56.7483L214.278 56.0675C214.137 55.8797 214.019 55.7153 213.914 55.5627C213.585 55.0814 213.28 54.5884 213.022 54.0836C212.282 52.3932 211.895 50.7146 211.836 49.0594V48.9302C211.836 45.6903 212.998 42.8847 215.299 40.6074C217.576 38.3535 220.358 37.2031 223.587 37.2031C226.815 37.2031 229.62 38.3535 231.874 40.6074C234.152 42.8847 235.302 45.6786 235.302 48.9302C235.302 49.1415 235.302 49.3529 235.29 49.5642C235.267 49.9868 234.915 50.292 234.48 50.292C234.058 50.2685 233.729 49.9046 233.752 49.482C233.752 49.3059 233.764 49.1181 233.764 48.942C233.764 46.0894 232.79 43.7182 230.782 41.7108C228.799 39.727 226.439 38.7644 223.587 38.7644C220.734 38.7644 218.398 39.727 216.391 41.7226C214.36 43.7299 213.385 46.0894 213.385 48.942C213.432 50.4798 213.773 51.9706 214.419 53.4263C214.63 53.8254 214.9 54.2714 215.193 54.694C215.287 54.8349 215.393 54.9758 215.498 55.1167L216.038 55.7623C216.438 56.2084 216.872 56.6192 217.33 56.9831C218.104 57.5935 218.938 58.0748 219.807 58.427C220.206 58.5796 220.394 59.0374 220.241 59.4248C220.124 59.73 219.83 59.9061 219.525 59.9061H219.513Z" fill="black"/>
<path d="M253.602 88.9866C252.381 88.9866 251.078 88.9513 249.681 88.8926C249.259 88.8692 248.93 88.517 248.942 88.0826C248.953 87.6483 249.306 87.3431 249.752 87.3431C252.51 87.4605 254.905 87.4605 256.889 87.3431L259.049 87.1318C259.471 87.0731 259.847 87.4018 259.894 87.8244C259.941 88.247 259.624 88.6226 259.201 88.6696L257.006 88.8809C255.973 88.9396 254.835 88.9748 253.602 88.9748V88.9866Z" fill="black"/>
<path d="M279.5 88.9909C278.491 88.9909 277.399 88.9556 276.249 88.8969C275.826 88.8735 275.497 88.5095 275.521 88.0869C275.544 87.6643 275.896 87.3474 276.331 87.3591C278.608 87.4765 280.58 87.4883 282.212 87.3591L283.996 87.1479C284.419 87.0892 284.806 87.3944 284.853 87.8287C284.9 88.2513 284.607 88.6387 284.184 88.6856L282.364 88.8969C281.496 88.9674 280.545 88.9909 279.512 88.9909H279.5Z" fill="black"/>
<path d="M274.679 85.9125C274.48 85.9125 274.28 85.842 274.139 85.6894C273.729 85.2786 273.388 84.7972 273.153 84.2573L272.919 83.6586C272.766 83.2594 272.966 82.8134 273.353 82.6608C273.74 82.5082 274.198 82.7077 274.351 83.0951L274.562 83.6469C274.715 83.9756 274.938 84.3042 275.219 84.586C275.525 84.8912 275.525 85.3725 275.219 85.6777C275.067 85.8303 274.867 85.9007 274.679 85.9007V85.9125Z" fill="black"/>
<path d="M280.248 139.421C282.138 137.015 283.042 133.411 282.96 128.598C282.878 123.797 281.094 120.287 277.619 118.045C274.144 115.826 270.916 115.368 267.934 116.66C265.986 117.505 264.084 119.219 262.265 121.813C260.727 123.996 259.705 126.696 259.212 129.925C258.508 134.655 259.858 138.4 263.251 141.147C266.749 144 270.223 144.974 273.675 144.046C276.163 143.366 278.358 141.828 280.248 139.421Z" fill="white"/>
<path d="M271.15 145.161C268.356 145.161 265.539 144.022 262.769 141.745C259.165 138.822 257.709 134.807 258.449 129.807C258.954 126.473 260.034 123.632 261.63 121.366C263.532 118.666 265.551 116.847 267.629 115.955C270.845 114.558 274.343 115.051 278.041 117.422C281.727 119.782 283.64 123.55 283.734 128.609C283.817 133.575 282.854 137.378 280.858 139.914C278.874 142.438 276.527 144.081 273.885 144.809C272.982 145.055 272.066 145.173 271.15 145.173V145.161ZM271.338 116.718C270.282 116.718 269.249 116.941 268.251 117.375C266.431 118.162 264.635 119.805 262.898 122.27C261.431 124.336 260.456 126.954 259.975 130.053C259.318 134.526 260.538 137.965 263.743 140.571C267.065 143.295 270.246 144.187 273.486 143.318C275.799 142.684 277.865 141.217 279.649 138.963C281.422 136.709 282.279 133.246 282.197 128.644C282.114 124.078 280.483 120.826 277.219 118.737C275.142 117.399 273.193 116.741 271.35 116.741L271.338 116.718Z" fill="black"/>
<path d="M266.261 125.464C266.355 124.936 266.636 124.443 267.118 123.997C267.599 123.527 268.033 123.363 268.432 123.504C268.855 123.621 268.82 124.49 268.339 126.098C268.127 126.755 267.986 127.154 267.916 127.295C267.763 127.554 267.493 127.647 267.083 127.589C266.695 127.507 266.437 127.272 266.319 126.861C266.19 126.462 266.179 125.992 266.273 125.464M276.838 123.058C277.671 123.034 278.34 123.433 278.857 124.243C279.303 124.807 279.467 125.452 279.35 126.215C279.244 126.861 278.997 127.342 278.598 127.636C278.199 127.871 277.624 127.589 276.849 126.791C276.004 125.969 275.57 125.159 275.558 124.372C275.534 123.562 275.957 123.128 276.826 123.069M277.389 133.928C276.626 134.738 275.675 134.843 274.513 134.245C273.903 133.916 273.245 133.552 272.541 133.153C272.412 133.177 272.072 133.505 271.52 134.104C271.015 134.632 270.534 134.914 270.076 134.961C269.313 134.996 268.644 134.761 268.092 134.28C267.411 133.611 267.176 132.625 267.388 131.298C267.611 129.878 268.256 128.504 269.325 127.213C270.334 125.969 271.25 125.3 272.083 125.218C273.68 125.124 275.253 126.227 276.779 128.551C278.352 130.911 278.551 132.707 277.377 133.94M271.179 120.416C271.802 120.123 272.342 120.158 272.776 120.51C273.198 120.815 273.468 121.273 273.574 121.884C273.95 123.304 273.398 124.22 271.919 124.642C270.675 124.501 270.076 123.856 270.123 122.705C270.217 121.496 270.569 120.733 271.179 120.416Z" fill="#FFC2C3"/>
<path d="M250.269 113.976C247.206 113.425 244.705 113.918 242.78 115.455C241.36 116.582 239.963 118.672 238.589 121.712C237.251 124.647 236.065 126.49 235.009 127.229C234.762 127.464 234.504 127.664 234.211 127.852H234.762V127.981H235.654V129.706H234.762V130.047H233.811V130.728H227.555L228.388 146.153C229.973 146.61 231.745 146.857 233.729 146.927L236.324 146.963C238.484 146.88 240.597 146.575 242.674 146.035C249.318 144.333 254.343 140.694 257.759 135.142C259.837 131.784 260.834 128.392 260.752 124.964C260.67 121.654 259.637 119.153 257.641 117.474C255.528 115.667 253.075 114.505 250.305 113.988L250.269 113.976Z" fill="white"/>
<path d="M236.322 147.715L233.693 147.68C231.65 147.621 229.796 147.351 228.152 146.882C227.741 146.764 227.507 146.342 227.624 145.931C227.741 145.52 228.176 145.285 228.575 145.403C230.089 145.837 231.826 146.083 233.728 146.142L236.299 146.177C238.353 146.095 240.431 145.79 242.45 145.273C248.86 143.63 253.778 140.073 257.065 134.732C259.049 131.527 260.023 128.24 259.941 124.977C259.859 121.866 258.932 119.601 257.1 118.051C255.093 116.337 252.745 115.222 250.116 114.729C247.263 114.212 245.009 114.647 243.237 116.055C241.922 117.1 240.584 119.119 239.269 122.03C237.86 125.129 236.604 127.031 235.43 127.865C235.078 128.111 234.597 128.029 234.35 127.677C234.104 127.325 234.186 126.843 234.538 126.597C235.184 126.151 236.275 124.871 237.86 121.385C239.304 118.204 240.748 116.055 242.274 114.834C244.375 113.156 247.11 112.604 250.386 113.203C253.285 113.743 255.879 114.975 258.086 116.865C260.246 118.685 261.385 121.397 261.467 124.93C261.549 128.499 260.505 132.067 258.356 135.53C254.846 141.235 249.623 145.003 242.814 146.764C240.689 147.304 238.506 147.633 236.299 147.715H236.322Z" fill="black"/>
<path d="M258.479 125.33C258.444 124.801 258.209 124.273 257.775 123.757C257.341 123.264 256.906 123.052 256.484 123.135C256.073 123.24 256.037 124.109 256.354 125.752C256.495 126.433 256.601 126.844 256.66 126.985C256.777 127.255 257.035 127.361 257.434 127.325C257.857 127.314 258.139 127.102 258.303 126.703C258.456 126.304 258.526 125.846 258.491 125.318M248.172 121.937C247.351 121.832 246.635 122.16 246.048 122.923C245.555 123.44 245.332 124.074 245.367 124.837C245.414 125.494 245.613 125.987 245.989 126.316C246.365 126.586 246.963 126.363 247.809 125.635C248.736 124.895 249.241 124.132 249.323 123.358C249.429 122.559 249.041 122.078 248.184 121.937M246.599 132.702C247.28 133.582 248.219 133.782 249.44 133.289C250.074 133.019 250.767 132.725 251.506 132.396C251.635 132.443 251.941 132.784 252.434 133.441C252.891 134.016 253.338 134.345 253.795 134.427C254.558 134.533 255.239 134.369 255.826 133.934C256.566 133.336 256.894 132.373 256.812 131.035C256.73 129.591 256.214 128.182 255.274 126.774C254.394 125.435 253.537 124.684 252.715 124.52C251.131 124.273 249.464 125.224 247.715 127.384C245.93 129.579 245.555 131.352 246.599 132.69M254.065 119.836C253.467 119.484 252.938 119.46 252.457 119.777C251.999 120.047 251.694 120.482 251.53 121.068C251.013 122.442 251.483 123.416 252.915 123.968C254.171 123.945 254.828 123.358 254.887 122.207C254.911 120.998 254.629 120.2 254.054 119.836H254.065Z" fill="#FFC2C3"/>
<path d="M299.875 71.2165C299.898 71.1566 299.895 71.0894 299.865 71.0325C297.197 65.9961 296.456 60.1578 297.782 54.6135C299.108 49.0692 302.41 44.2002 307.067 40.9206C311.723 37.641 317.415 36.1764 323.074 36.8016C328.733 37.4268 333.969 40.099 337.8 44.3164C341.631 48.5337 343.793 54.0063 343.88 59.7068C343.967 65.4072 341.973 70.9434 338.273 75.2762C334.573 79.6089 329.42 82.4402 323.783 83.2384C318.146 84.0366 312.412 82.747 307.657 79.6116C307.609 79.5801 307.551 79.5688 307.494 79.58L300.093 81.044C298.159 81.4265 296.569 79.5135 297.299 77.682L299.875 71.2165Z" fill="white" stroke="#222222" stroke-width="1.61687" stroke-linejoin="round"/>
<path d="M314.63 69.769L321 63.3992L327.374 69.7732C327.825 70.224 328.436 70.4772 329.074 70.4772C329.711 70.4772 330.322 70.224 330.773 69.7732C331.224 69.3225 331.477 68.7111 331.477 68.0736C331.477 67.4362 331.224 66.8248 330.773 66.3741L330.773 66.374L324.397 60L330.772 53.626L330.772 53.6259C330.995 53.4026 331.172 53.1377 331.293 52.8461C331.413 52.5545 331.476 52.242 331.475 51.9264C331.475 51.6108 331.413 51.2984 331.292 51.0068C331.172 50.7153 330.994 50.4504 330.771 50.2273C330.548 50.0042 330.283 49.8273 329.991 49.7066L329.801 50.1672L329.991 49.7066C329.7 49.5859 329.387 49.5238 329.072 49.5239C328.756 49.5239 328.444 49.5862 328.152 49.707C327.861 49.8278 327.596 50.0049 327.373 50.2281L321 56.6021L314.629 50.231C314.408 50.003 314.144 49.821 313.852 49.6955C313.559 49.5695 313.244 49.503 312.925 49.5001C312.606 49.4972 312.289 49.5578 311.994 49.6785C311.699 49.7992 311.43 49.9775 311.205 50.203C310.979 50.4285 310.8 50.6967 310.679 50.992C310.558 51.2873 310.497 51.6036 310.5 51.9227C310.503 52.2418 310.569 52.5571 310.695 52.8503C310.82 53.1422 311.002 53.4064 311.23 53.6275L317.603 60L311.231 66.3725C311.003 66.5937 310.821 66.8578 310.696 67.1497C310.57 67.4429 310.504 67.7582 310.501 68.0773C310.499 68.3964 310.56 68.7127 310.681 69.008C310.802 69.3033 310.98 69.5715 311.206 69.797L311.559 69.444L311.206 69.797C311.432 70.0225 311.7 70.2008 311.995 70.3215C312.291 70.4422 312.607 70.5028 312.926 70.4999C313.245 70.497 313.561 70.4305 313.854 70.3045C314.145 70.179 314.409 69.997 314.63 69.769Z" fill="#FF3333" stroke="#FF3333"/>
</svg>
