<svg width="510" height="180" viewBox="0 0 510 180" fill="none" xmlns="http://www.w3.org/2000/svg">
<path d="M0 112.67V1.53501H76.8662V22.8716H26.0823V46.3573H72.8771V67.6939H26.0823V91.333H77.0196V112.67H0Z" fill="#EDEDED"/>
<path d="M94.5891 112.67V1.53501H140.003C165.011 1.53501 180.354 15.6571 180.354 38.3752C180.354 53.6486 173.373 64.6239 161.176 70.1499L184.343 112.67H155.652L135.247 74.4479H120.671V112.67H94.5891ZM120.671 53.5718H134.48C146.754 53.5718 153.351 48.8133 153.351 38.3752C153.351 27.9372 146.754 22.7181 134.48 22.7181H120.671V53.5718Z" fill="#EDEDED"/>
<path d="M197.082 112.67V1.53501H242.496C267.504 1.53501 282.847 15.6571 282.847 38.3752C282.847 53.6486 275.866 64.6239 263.669 70.1499L286.836 112.67H258.145L237.74 74.4479H223.164V112.67H197.082ZM223.164 53.5718H236.973C249.247 53.5718 255.844 48.8133 255.844 38.3752C255.844 27.9372 249.247 22.7181 236.973 22.7181H223.164V53.5718Z" fill="#EDEDED"/>
<path d="M403.751 57.1023C403.751 93.7891 380.737 114.205 350.972 114.205C321.054 114.205 298.194 93.6356 298.194 57.1023C298.194 20.4156 321.054 0 350.972 0C380.737 0 403.751 20.4156 403.751 57.1023ZM377.055 57.1023C377.055 34.9982 367.235 23.0251 350.972 23.0251C334.709 23.0251 324.89 34.9982 324.89 57.1023C324.89 79.2065 334.709 91.1795 350.972 91.1795C367.235 91.1795 377.055 79.2065 377.055 57.1023Z" fill="#EDEDED"/>
<path d="M420.246 112.67V1.53501H465.66C490.668 1.53501 506.011 15.6571 506.011 38.3752C506.011 53.6486 499.03 64.6239 486.833 70.1499L510 112.67H481.309L460.904 74.4479H446.328V112.67H420.246ZM446.328 53.5718H460.137C472.411 53.5718 479.008 48.8133 479.008 38.3752C479.008 27.9372 472.411 22.7181 460.137 22.7181H446.328V53.5718Z" fill="#EDEDED"/>
<rect x="182" y="166" width="164" height="14" rx="7" fill="#333333" fill-opacity="0.15"/>
<path d="M291.433 146.859L269.896 143.734L246.905 147.415L236.863 160.029V171.423L271.35 171.648H300.254C300.254 171.648 306.949 154.679 291.433 146.859Z" fill="white"/>
<path d="M300.256 172.375H271.351C271.351 172.375 271.283 172.375 271.244 172.375L236.865 172.151C236.465 172.151 236.133 171.819 236.133 171.418V160.025C236.133 159.859 236.191 159.703 236.289 159.566L246.33 146.952C246.448 146.805 246.604 146.717 246.789 146.688L269.78 143.007C269.848 142.998 269.926 142.998 270.005 143.007L291.542 146.132C291.62 146.141 291.698 146.171 291.766 146.2C307.692 154.225 301.007 171.731 300.939 171.907C300.832 172.19 300.558 172.366 300.256 172.366V172.375ZM271.351 170.911H299.739C300.685 168.158 304.589 154.382 291.21 147.557L269.897 144.462L247.297 148.084L237.587 160.279V170.686L266.384 170.872C265.896 170.55 265.447 170.179 265.037 169.778C263.73 168.45 263.047 166.82 263.066 165.063C263.144 159.039 268.346 154.089 274.659 154.011C277.519 153.962 280.719 154.684 283.588 156.012C283.959 156.178 284.115 156.617 283.949 156.988C283.784 157.359 283.344 157.516 282.974 157.35C280.31 156.11 277.372 155.436 274.679 155.485C269.146 155.553 264.598 159.859 264.53 165.092C264.511 166.8 265.36 168.031 266.082 168.753C267.38 170.061 269.351 170.891 271.254 170.911H271.351Z" fill="#040000"/>
<path d="M250.254 171.815C250.01 171.815 249.776 171.698 249.629 171.473C249.415 171.132 249.522 170.683 249.863 170.468C250.849 169.853 251.23 166.875 251.191 164.961C250.908 162.228 249.902 160.148 248.214 158.84C245.521 156.76 241.92 157.287 241.881 157.297C241.491 157.356 241.11 157.082 241.042 156.692C240.973 156.301 241.247 155.92 241.647 155.852C241.813 155.823 245.892 155.218 249.092 157.678C251.122 159.24 252.323 161.661 252.645 164.873C252.664 165.84 252.664 170.438 250.634 171.708C250.517 171.786 250.381 171.815 250.244 171.815H250.254Z" fill="#040000"/>
<path d="M247.638 84.1357C252.998 83.5674 256.838 78.3426 256.215 72.4658C255.593 66.5889 250.743 62.2855 245.384 62.8538C240.024 63.4221 236.184 68.6469 236.807 74.5238C237.429 80.4006 242.279 84.704 247.638 84.1357Z" fill="white"/>
<path d="M238.169 79.6212C237.915 79.6212 237.662 79.4845 237.525 79.2404C236.735 77.815 236.247 76.2529 236.071 74.6029C235.749 71.5763 236.53 68.618 238.257 66.265C240.004 63.8926 242.502 62.4183 245.303 62.1254C249.909 61.6372 254.251 64.4295 256.115 69.0769C256.261 69.4479 256.086 69.8774 255.705 70.0337C255.334 70.1801 254.905 70.0044 254.749 69.6236C253.129 65.5914 249.401 63.1701 245.449 63.5899C243.068 63.8437 240.931 65.1032 239.428 67.1437C237.915 69.2038 237.242 71.8008 237.525 74.4564C237.681 75.9112 238.111 77.2878 238.803 78.5473C238.999 78.8987 238.872 79.3478 238.52 79.5431C238.413 79.6017 238.286 79.631 238.169 79.631V79.6212Z" fill="#040000"/>
<path d="M286.973 147.688C286.973 147.688 316.512 143.959 314.209 122.275C313.399 114.669 311.34 108.489 306.997 105.433C306.997 105.433 305.895 64.6712 266.812 68.8109C222.391 73.5265 229.935 113.605 229.935 113.605C223.748 117.1 222.128 124.344 222.928 131.95C225.231 153.634 263.631 150.159 263.631 150.159L286.973 147.679V147.688Z" fill="white"/>
<path d="M229.631 112.043C229.26 112.043 228.938 111.76 228.899 111.379C228.05 102.25 228.255 72.1599 266.723 68.0886C269.495 67.7957 272.178 67.7176 274.696 67.8543C275.096 67.8738 275.408 68.2253 275.389 68.6256C275.369 69.0259 274.979 69.3286 274.618 69.3188C272.169 69.1821 269.573 69.2602 266.879 69.5433C229.748 73.4877 229.543 102.455 230.363 111.242C230.402 111.643 230.109 112.004 229.7 112.043C229.68 112.043 229.651 112.043 229.631 112.043Z" fill="#040000"/>
<path d="M306.821 103.922C306.45 103.922 306.137 103.639 306.089 103.268C305.61 98.8545 303.717 87.6853 296.437 79.3865C296.174 79.0839 296.203 78.6152 296.506 78.3516C296.808 78.088 297.277 78.1173 297.54 78.42C305.103 87.0312 307.055 98.5519 307.552 103.111C307.591 103.512 307.308 103.873 306.899 103.922C306.869 103.922 306.85 103.922 306.821 103.922Z" fill="#040000"/>
<path d="M279.341 149.232C278.97 149.232 278.658 148.949 278.609 148.578C278.57 148.177 278.853 147.816 279.263 147.767L286.894 146.957C287.167 146.918 315.672 143.061 313.476 122.344C312.588 114.006 310.334 108.665 306.577 106.029C306.245 105.795 306.167 105.336 306.401 105.014C306.635 104.682 307.084 104.604 307.416 104.838C311.544 107.738 314.003 113.42 314.93 122.197C317.282 144.34 287.362 148.382 287.06 148.422L279.419 149.232C279.419 149.232 279.37 149.232 279.341 149.232Z" fill="#040000"/>
<path d="M256.096 151.088H256.077C244.152 150.844 223.893 148.042 222.205 132.04C221.249 122.97 223.864 116.204 229.573 112.982C229.924 112.787 230.373 112.914 230.568 113.265C230.763 113.617 230.646 114.066 230.285 114.261C223.659 118.001 223.015 125.909 223.649 131.894C225.23 146.783 244.659 149.399 256.096 149.634C256.496 149.634 256.818 149.975 256.809 150.385C256.809 150.786 256.477 151.098 256.077 151.098L256.096 151.088Z" fill="#040000"/>
<path d="M240.327 114.831C241.388 114.719 242.122 113.432 241.966 111.958C241.809 110.483 240.822 109.379 239.761 109.492C238.7 109.604 237.966 110.891 238.123 112.365C238.279 113.84 239.266 114.944 240.327 114.831Z" fill="#040000"/>
<path d="M225.424 119.585C225.004 119.732 224.672 119.878 224.204 120.181C223.423 122.055 222.974 124.145 222.809 126.342C223.638 125.57 225.863 122.895 228.42 121.05C230.235 119.732 229.054 118.326 225.424 119.585Z" fill="#040000"/>
<path d="M226.798 132.393C225.237 132.754 224.3 133.448 223.363 134.385C223.998 136.894 225.169 139.013 226.71 140.799C227.667 137.792 230.663 131.485 226.798 132.393Z" fill="#040000"/>
<path d="M263.91 112.307C265.392 112.307 266.594 111.105 266.594 109.622C266.594 108.14 265.392 106.938 263.91 106.938C262.428 106.938 261.227 108.14 261.227 109.622C261.227 111.105 262.428 112.307 263.91 112.307Z" fill="#040000"/>
<path d="M246.13 114.194C246.199 114.867 247.409 116.078 249.058 115.912C250.707 115.746 252.552 114.203 252.483 113.52C252.415 112.837 251.302 112.114 248.687 112.387C246.072 112.661 246.062 113.51 246.13 114.194Z" fill="#040000"/>
<path d="M245.839 126.445C243.897 126.445 242.179 125.8 241.047 124.629C240.169 123.721 239.203 122.012 239.613 119.103C240.374 113.655 246.492 113.04 249.43 112.747L250.328 112.649C253.392 112.307 260.574 111.507 262.467 116.681C263.482 119.444 262.887 121.309 262.223 122.383C261.218 124.004 259.296 125.078 256.944 125.322C254.397 125.585 252.289 124.14 251.157 123.145C250.523 124.531 249.176 126.152 246.824 126.396C246.492 126.435 246.17 126.445 245.848 126.445H245.839ZM254.085 113.85C252.689 113.85 251.372 113.996 250.474 114.094L249.566 114.192C246.805 114.465 241.662 114.982 241.057 119.298C240.793 121.172 241.145 122.617 242.101 123.603C243.096 124.629 244.804 125.127 246.668 124.931C249.469 124.638 250.093 121.758 250.123 121.641C250.181 121.368 250.386 121.153 250.659 121.075C250.933 120.997 251.216 121.094 251.401 121.319C251.42 121.348 253.841 124.17 256.778 123.857C258.642 123.662 260.203 122.813 260.964 121.602C261.686 120.44 261.725 118.946 261.081 117.169C260.086 114.436 256.905 113.84 254.094 113.84L254.085 113.85Z" fill="#040000"/>
<path d="M288.834 112.693C292.571 113.26 295.967 114.089 298.28 115.818C302.857 119.235 302.203 125.639 291.274 118.659C288.161 116.716 284.101 115.935 281.144 114.861C278.705 113.972 278.841 112.82 281.691 112.635C286.121 112.352 288.307 112.586 288.824 112.693H288.834Z" fill="#040000"/>
<path d="M258.903 77.7686L253.165 78.3739C253.126 77.378 252.492 76.4701 251.497 76.1381C250.218 75.7183 248.842 76.4115 248.423 77.7002C248.296 78.0908 248.179 78.5008 248.071 78.9207L242.607 79.4967C241.27 79.6431 240.294 80.844 240.44 82.1816C240.587 83.5192 241.787 84.4955 243.124 84.349L247.291 83.9097C247.174 85.2766 247.115 86.6337 247.086 87.8834L244.539 88.1567C243.202 88.3032 242.226 89.5041 242.373 90.8416C242.519 92.1792 243.719 93.1555 245.056 93.0091L247.164 92.7845C247.183 93.2629 247.213 93.5851 247.213 93.6535C247.31 95.0008 248.472 96.0162 249.818 95.9185C249.848 95.9185 249.877 95.9185 249.906 95.9185C251.204 95.7819 252.17 94.6396 252.082 93.3215C252.082 93.302 252.053 92.9114 252.033 92.2768L256.649 91.7887C257.986 91.6422 258.962 90.4413 258.816 89.1038C258.669 87.7662 257.469 86.7899 256.132 86.9363L251.994 87.3757C252.033 86.0869 252.111 84.72 252.258 83.3922L259.45 82.6307C260.787 82.4843 261.763 81.2834 261.616 79.9458C261.47 78.6082 260.27 77.6319 258.933 77.7783L258.903 77.7686Z" fill="#040000"/>
<path d="M292.483 125.258C289.145 124.028 283.183 123.471 282.89 124.652C282.578 125.931 287.164 128.558 289.262 129.788C291.361 131.018 297.635 136.564 299.929 133.908C302.222 131.252 299.597 127.884 292.473 125.248L292.483 125.258Z" fill="#040000"/>
<path d="M288.133 79.7761C294.04 79.7761 298.828 74.9853 298.828 69.0756C298.828 63.1658 294.04 58.375 288.133 58.375C282.226 58.375 277.438 63.1658 277.438 69.0756C277.438 74.9853 282.226 79.7761 288.133 79.7761Z" fill="white"/>
<path d="M293.12 79.2788C292.856 79.2788 292.602 79.1324 292.466 78.8883C292.28 78.527 292.417 78.0877 292.768 77.9022C296.399 75.9886 298.467 72.1126 298.038 68.0217C297.755 65.3759 296.467 62.9936 294.398 61.3241C292.329 59.6546 289.724 58.8833 287.089 59.1664C284.444 59.4496 282.063 60.7383 280.395 62.8179C278.726 64.8975 277.955 67.4848 278.238 70.1306C278.257 70.3161 278.287 70.5016 278.316 70.6871C278.384 71.0874 278.111 71.4584 277.711 71.5268C277.311 71.5853 276.94 71.3217 276.872 70.9214C276.833 70.7164 276.813 70.5016 276.784 70.2868C276.462 67.2504 277.34 64.2726 279.263 61.9002C281.185 59.5277 283.908 58.0437 286.943 57.7215C289.977 57.3993 292.954 58.278 295.335 60.2013C297.706 62.1247 299.189 64.8487 299.511 67.885C300.009 72.5714 297.638 77.0137 293.471 79.2105C293.364 79.269 293.247 79.2983 293.129 79.2983L293.12 79.2788Z" fill="#040000"/>
<path d="M283.882 96.2392C282.486 96.2392 281.735 95.6241 281.335 95.1066C279.93 93.2907 280.73 90.02 280.818 89.6587C280.915 89.2682 281.315 89.0339 281.706 89.1315C282.096 89.2291 282.33 89.6294 282.233 90.02C282.028 90.8303 281.667 93.154 282.486 94.2084C282.779 94.5892 283.218 94.7649 283.833 94.7747C283.814 94.7747 284.614 94.6868 285.053 94.0717C285.424 93.5445 285.482 92.7537 285.219 91.6993C285.121 91.3087 285.355 90.9084 285.756 90.8108C286.156 90.7132 286.546 90.9475 286.644 91.3478C287.014 92.8416 286.878 94.0522 286.234 94.9407C285.375 96.122 283.95 96.2392 283.892 96.2392H283.882Z" fill="#040000"/>
<path d="M295.121 105.415C294.203 105.415 293.335 105.015 292.769 104.263C292.203 103.511 291.949 102.486 291.988 101.119C291.998 100.719 292.349 100.397 292.74 100.406C293.14 100.416 293.462 100.748 293.452 101.158C293.423 102.183 293.589 102.906 293.94 103.384C294.447 104.058 295.355 104.068 295.989 103.726C296.37 103.521 296.585 103.248 296.467 102.535C296.409 102.135 296.672 101.764 297.072 101.695C297.482 101.627 297.843 101.9 297.912 102.301C298.156 103.863 297.375 104.634 296.682 105.005C296.184 105.278 295.648 105.405 295.121 105.405V105.415Z" fill="#040000"/>
<path d="M185.846 142.473C187.271 145.607 188.842 148.682 190.306 151.797C192.648 156.747 194.941 161.726 197.527 166.559C198.259 167.936 199.625 170.074 201.382 170.074H243.187C247.91 170.074 246.222 165.856 246.222 165.856L237.118 138.529C235.429 134.145 231.721 134.818 231.721 134.818H186.861C186.861 134.818 183.28 135.443 184.197 139.261L185.846 142.463V142.473Z" fill="#B3B7B9"/>
<path d="M243.187 170.806H201.382C199.781 170.806 198.259 169.488 196.883 166.9C194.648 162.712 192.589 158.348 190.599 154.13L189.642 152.109C189.067 150.879 188.471 149.668 187.876 148.448C186.978 146.602 186.051 144.699 185.183 142.795L183.543 139.612C183.514 139.563 183.495 139.504 183.485 139.446C183.153 138.069 183.299 136.878 183.934 135.921C184.91 134.437 186.666 134.115 186.744 134.105C186.783 134.105 186.832 134.096 186.871 134.096H231.672C233.195 133.851 236.327 134.418 237.81 138.274L246.925 165.631C246.925 165.631 247.774 167.798 246.72 169.351C246.066 170.327 244.875 170.815 243.197 170.815L243.187 170.806ZM184.88 139.016L186.49 142.141C186.49 142.141 186.5 142.16 186.51 142.17C187.369 144.064 188.296 145.958 189.193 147.803C189.789 149.024 190.384 150.254 190.97 151.484L191.926 153.505C193.907 157.703 195.956 162.058 198.181 166.217C199.274 168.267 200.386 169.351 201.392 169.351H243.197C244.358 169.351 245.139 169.077 245.51 168.531C246.027 167.779 245.715 166.549 245.549 166.129L236.434 138.772C235.01 135.062 231.985 135.531 231.858 135.55C231.819 135.55 231.77 135.56 231.731 135.56H186.93C186.695 135.619 185.68 135.902 185.134 136.732C184.753 137.317 184.666 138.089 184.88 139.016Z" fill="#040000"/>
<path d="M242.329 167.543C242.027 167.543 241.744 167.347 241.636 167.045L232.444 140.098C232.317 139.717 232.522 139.297 232.902 139.17C233.283 139.043 233.703 139.248 233.83 139.629L243.022 166.576C243.149 166.957 242.944 167.377 242.563 167.503C242.485 167.533 242.407 167.543 242.329 167.543Z" fill="#040000"/>
<path d="M276.354 170.07H200.96C199.882 170.07 199.008 170.945 199.008 172.023V173.575C199.008 174.654 199.882 175.528 200.96 175.528H276.354C277.432 175.528 278.305 174.654 278.305 173.575V172.023C278.305 170.945 277.432 170.07 276.354 170.07Z" fill="#B3B7B9"/>
<path d="M276.355 176.258H200.961C199.478 176.258 198.277 175.057 198.277 173.573V172.021C198.277 170.537 199.478 169.336 200.961 169.336H276.355C277.838 169.336 279.039 170.537 279.039 172.021V173.573C279.039 175.057 277.838 176.258 276.355 176.258ZM200.961 170.8C200.288 170.8 199.741 171.347 199.741 172.021V173.573C199.741 174.247 200.288 174.794 200.961 174.794H276.355C277.028 174.794 277.575 174.247 277.575 173.573V172.021C277.575 171.347 277.028 170.8 276.355 170.8H200.961Z" fill="#040000"/>
<path d="M244.488 170.078C244.488 170.078 245.67 173.378 244.488 175.262V170.078Z" fill="#B3B7B9"/>
<path d="M244.487 175.996C244.35 175.996 244.223 175.957 244.096 175.879C243.755 175.664 243.647 175.215 243.862 174.873C244.672 173.585 244.086 171.153 243.794 170.324C243.657 169.943 243.852 169.523 244.233 169.386C244.623 169.25 245.034 169.455 245.17 169.826C245.219 169.972 246.459 173.487 245.102 175.645C244.965 175.869 244.721 175.986 244.477 175.986L244.487 175.996Z" fill="#040000"/>
<path d="M328.615 165.734H287.824V173.604H328.615V165.734Z" fill="white"/>
<path d="M297.474 163.602H290.545C288.028 163.602 285.969 165.662 285.969 168.181V171.119C285.969 173.638 288.028 175.698 290.545 175.698H297.279L306.198 175.718H328.672C329.394 175.718 329.989 175.122 329.989 174.4C329.989 173.677 329.394 173.082 328.672 173.082H290.477C288.857 173.082 288.857 171.197 288.857 171.197V168.347C288.857 166.306 290.477 166.257 290.477 166.257H328.672C329.394 166.257 329.989 165.662 329.989 164.939C329.989 164.217 329.394 163.621 328.672 163.621H297.474V163.602Z" fill="#5084B3"/>
<path d="M328.673 176.448L290.547 176.428C287.619 176.428 285.238 174.046 285.238 171.117V168.178C285.238 165.249 287.619 162.867 290.547 162.867H328.673C329.805 162.867 330.723 163.795 330.723 164.927C330.723 166.06 329.805 166.978 328.673 166.978H290.479C290.293 166.987 289.591 167.134 289.591 168.335V171.186C289.591 171.449 289.669 172.338 290.479 172.338H328.673C329.805 172.338 330.723 173.255 330.723 174.388C330.723 175.52 329.805 176.438 328.673 176.438V176.448ZM290.547 164.332C288.429 164.332 286.702 166.06 286.702 168.178V171.117C286.702 173.236 288.429 174.964 290.547 174.964L328.673 174.983C328.995 174.983 329.259 174.72 329.259 174.398C329.259 174.075 328.986 173.812 328.673 173.812H290.479C288.751 173.812 288.127 172.25 288.127 171.195V168.344C288.127 166.089 289.805 165.542 290.459 165.523H328.673C328.995 165.523 329.259 165.259 329.259 164.937C329.259 164.615 328.986 164.351 328.673 164.351H290.547V164.332Z" fill="#040000"/>
<path d="M319.744 168.758H307C306.726 168.758 306.512 168.543 306.512 168.269C306.512 167.996 306.726 167.781 307 167.781H319.744C320.017 167.781 320.232 167.996 320.232 168.269C320.232 168.543 320.017 168.758 319.744 168.758Z" fill="#040000"/>
<path d="M309.914 168.398V174.686L312.598 173.192L314.969 174.686V168.398H309.914Z" fill="#FC9C3E"/>
<path d="M314.971 175.176C314.883 175.176 314.785 175.147 314.707 175.098L312.58 173.76L310.15 175.117C310.003 175.205 309.818 175.196 309.662 175.117C309.516 175.03 309.418 174.873 309.418 174.698V168.41C309.418 168.137 309.633 167.922 309.906 167.922H314.961C315.234 167.922 315.449 168.137 315.449 168.41V174.698C315.449 174.873 315.351 175.039 315.195 175.127C315.117 175.166 315.039 175.186 314.961 175.186L314.971 175.176ZM310.404 168.888V173.858L312.355 172.764C312.511 172.677 312.707 172.686 312.853 172.774L314.483 173.799V168.888H310.404Z" fill="#040000"/>
<path d="M328.685 173.461C328.285 173.461 327.953 173.129 327.953 172.729V166.607C327.953 166.207 328.285 165.875 328.685 165.875C329.086 165.875 329.418 166.207 329.418 166.607V172.729C329.418 173.129 329.086 173.461 328.685 173.461Z" fill="#040000"/>
<path d="M186.174 82.3501C187.755 79.8331 191.271 79.8331 192.851 82.3501L209.609 109.036C211.405 111.896 209.374 115.542 206.27 115.542H172.755C169.651 115.542 167.62 111.896 169.416 109.036L186.174 82.3501Z" fill="white" stroke="#FF3333" stroke-width="2.45601"/>
<path fill-rule="evenodd" clip-rule="evenodd" d="M186.931 92.9936C186.83 91.7586 188.346 90.875 189.835 90.875C191.323 90.875 192.84 91.7586 192.739 92.9936L192.014 103.739C192.005 104.142 191.776 104.526 191.376 104.812C190.967 105.102 190.413 105.266 189.835 105.266C189.257 105.266 188.702 105.102 188.294 104.812C187.893 104.526 187.664 104.142 187.656 103.739L186.931 92.9936Z" fill="#FF3333"/>
<path d="M192.016 108.904C192.016 110.109 191.04 111.086 189.835 111.086C188.63 111.086 187.653 110.109 187.653 108.904C187.653 107.698 188.63 106.721 189.835 106.721C191.04 106.721 192.016 107.698 192.016 108.904Z" fill="#FF3333"/>
</svg>
