<svg width="24" height="24" viewBox="0 0 24 24" fill="none" xmlns="http://www.w3.org/2000/svg">
<g id="icon_&#236;&#151;&#145;&#236;&#133;&#128;">
<path id="Vector" d="M9 11L9 20M9 11L4.6001 11C4.04004 11 3.75981 11.0004 3.5459 11.1094C3.35774 11.2052 3.20487 11.3571 3.10899 11.5452C3 11.7591 3 12.0399 3 12.6L3 20L9 20M9 11L9 5.6C9 5.03995 9 4.75914 9.10899 4.54523C9.20487 4.35706 9.35774 4.20525 9.5459 4.10937C9.75981 4.00038 10.04 4 10.6001 4L13.4001 4C13.9601 4 14.2398 4.00038 14.4537 4.10937C14.6419 4.20525 14.7952 4.35707 14.8911 4.54523C15 4.75893 15 5.03901 15 5.59797L15 8M9 20L15 20M15 20L21 20L21 9.59797C21 9.03901 21 8.75893 20.8911 8.54523C20.7952 8.35707 20.642 8.20525 20.4538 8.10937C20.2399 8.00038 19.9601 8 19.4 8L15 8M15 20L15 8" stroke="#4053FF" stroke-width="2" stroke-linecap="round" stroke-linejoin="round"/>
</g>
</svg>
