<svg width="16" height="16" viewBox="0 0 16 16" fill="none" xmlns="http://www.w3.org/2000/svg">
<path id="Vector" d="M8 0C6.41775 0 4.87103 0.469192 3.55544 1.34824C2.23985 2.22729 1.21447 3.47672 0.608967 4.93853C0.00346631 6.40034 -0.15496 8.00887 0.153721 9.56072C0.462403 11.1126 1.22433 12.538 2.34315 13.6569C3.46197 14.7757 4.88743 15.5376 6.43928 15.8463C7.99113 16.155 9.59966 15.9965 11.0615 15.391C12.5233 14.7855 13.7727 13.7602 14.6518 12.4446C15.5308 11.129 16 9.58225 16 8C16 6.94942 15.7931 5.90914 15.391 4.93853C14.989 3.96793 14.3997 3.08601 13.6569 2.34315C12.914 1.60028 12.0321 1.011 11.0615 0.608964C10.0909 0.206926 9.05058 0 8 0ZM7.2 4C7.2 3.78783 7.28429 3.58434 7.43432 3.43431C7.58435 3.28428 7.78783 3.2 8 3.2C8.21218 3.2 8.41566 3.28428 8.56569 3.43431C8.71572 3.58434 8.8 3.78783 8.8 4V8.8C8.8 9.01217 8.71572 9.21565 8.56569 9.36568C8.41566 9.51571 8.21218 9.6 8 9.6C7.78783 9.6 7.58435 9.51571 7.43432 9.36568C7.28429 9.21565 7.2 9.01217 7.2 8.8V4ZM8 13.6C7.76266 13.6 7.53066 13.5296 7.33332 13.3978C7.13598 13.2659 6.98217 13.0785 6.89135 12.8592C6.80052 12.6399 6.77676 12.3987 6.82306 12.1659C6.86936 11.9331 6.98365 11.7193 7.15147 11.5515C7.3193 11.3836 7.53312 11.2694 7.76589 11.2231C7.99867 11.1768 8.23995 11.2005 8.45922 11.2913C8.67849 11.3822 8.86591 11.536 8.99777 11.7333C9.12962 11.9307 9.2 12.1627 9.2 12.4C9.2 12.7183 9.07357 13.0235 8.84853 13.2485C8.62349 13.4736 8.31826 13.6 8 13.6Z" fill="#FF0000"/>
</svg>
