<svg width="32" height="32" viewBox="0 0 32 32" fill="none" xmlns="http://www.w3.org/2000/svg">
<g id="Group 57">
<rect id="Rectangle 65" width="32" height="32" rx="12" fill="#8C98FF"/>
<path id="Vector" d="M14.5001 10.5H12.4001C11.5601 10.5 11.1397 10.5 10.8188 10.6635C10.5366 10.8073 10.3073 11.0366 10.1635 11.3188C10 11.6397 10 12.0601 10 12.9001V20.1001C10 20.9402 10 21.36 10.1635 21.6809C10.3073 21.9632 10.5366 22.1929 10.8188 22.3367C11.1394 22.5 11.5592 22.5 12.3977 22.5H19.6023C20.4408 22.5 20.86 22.5 21.1805 22.3367C21.4628 22.1929 21.6929 21.9629 21.8367 21.6807C22 21.3601 22 20.9408 22 20.1023V18M19 11.25L14.5 15.75V18H16.75L21.25 13.5M19 11.25L21.25 9L23.5 11.25L21.25 13.5M19 11.25L21.25 13.5" stroke="white" stroke-width="1.5" stroke-linecap="round" stroke-linejoin="round"/>
</g>
</svg>
