<svg width="70" height="70" viewBox="0 0 70 70" fill="none" xmlns="http://www.w3.org/2000/svg">
<g id="icon_&#236;&#166;&#157;&#235;&#170;&#133;&#236;&#132;&#156;">
<circle id="Ellipse 11" cx="35" cy="35" r="35" fill="#94E3FD"/>
<path id="&#236;&#166;&#157;&#235;&#170;&#133;&#236;&#132;&#156;&#235;&#176;&#156;&#234;&#184;&#137;" d="M44 42.4998C45.3978 42.4998 46.0967 42.4998 46.6481 42.2715C47.3831 41.967 47.967 41.3828 48.2715 40.6478C48.4998 40.0964 48.5 39.3981 48.5 38.0003V32.2954C48.5 30.6185 48.5 29.7788 48.1733 29.1377C47.8857 28.5732 47.4256 28.1146 46.8611 27.827C46.2587 27.52 45.4826 27.5012 44 27.5001M44 27.5001C43.9032 27.5 43.8033 27.5 43.7003 27.5H26.3003C26.1971 27.5 26.097 27.5 26 27.5001M44 27.5001L26 27.5001M44 27.5001V26.2954C44 24.6185 44 23.7788 43.6733 23.1377C43.3857 22.5732 42.9256 22.1146 42.3611 21.827C41.7194 21.5 40.8805 21.5 39.2003 21.5H30.8003C29.1201 21.5 28.2794 21.5 27.6377 21.827C27.0732 22.1146 26.6146 22.5732 26.327 23.1377C26 23.7794 26 24.6201 26 26.3003V27.5001M26 27.5001C24.5176 27.5012 23.74 27.5201 23.1377 27.827C22.5732 28.1146 22.1146 28.5732 21.827 29.1377C21.5 29.7794 21.5 30.6201 21.5 32.3003V38.0003C21.5 39.3981 21.5 40.0964 21.7284 40.6478C22.0328 41.3828 22.6165 41.967 23.3516 42.2715C23.9029 42.4998 24.6018 42.4998 25.9996 42.4998M32 33.5H38M30.5 39.5H39.5C40.8978 39.5 41.5967 39.5 42.1481 39.7284C42.8831 40.0328 43.467 40.6165 43.7715 41.3516C43.9998 41.9029 43.9998 42.6022 43.9998 44C43.9998 45.3978 43.9998 46.0967 43.7715 46.6481C43.467 47.3831 42.8831 47.967 42.1481 48.2715C41.5967 48.4998 40.8978 48.5 39.5 48.5H30.5C29.1022 48.5 28.4029 48.4998 27.8516 48.2715C27.1165 47.967 26.5328 47.3835 26.2284 46.6484C26 46.0971 26 45.3974 26 43.9996C26 42.6018 26 41.9029 26.2284 41.3516C26.5328 40.6165 27.1165 40.0328 27.8516 39.7284C28.4029 39.5 29.1022 39.5 30.5 39.5Z" stroke="white" stroke-width="3" stroke-linecap="round" stroke-linejoin="round"/>
</g>
</svg>
