<svg width="70" height="70" viewBox="0 0 70 70" fill="none" xmlns="http://www.w3.org/2000/svg">
<circle cx="35" cy="35" r="35" fill="#8C98FF"/>
<path d="M35.3857 29.5001V35.5001M23.9541 38.7998C22.59 41.1626 21.9081 42.3444 22.01 43.3138C22.0988 44.1594 22.5426 44.9276 23.2305 45.4273C24.0188 46.0001 25.3821 46.0001 28.1085 46.0001H42.6629C45.3894 46.0001 46.7525 46.0001 47.5408 45.4273C48.2287 44.9276 48.6726 44.1594 48.7615 43.3138C48.8634 42.3444 48.1817 41.1626 46.8176 38.7998L39.543 26.1998C38.1788 23.837 37.4964 22.6558 36.606 22.2594C35.8292 21.9135 34.9418 21.9135 34.165 22.2594C33.2749 22.6557 32.593 23.8369 31.2299 26.1977L23.9541 38.7998ZM35.4619 40.0001V40.1501L35.311 40.1504V40.0001H35.4619Z" stroke="white" stroke-width="3" stroke-linecap="round" stroke-linejoin="round"/>
</svg>
