<svg width="70" height="70" viewBox="0 0 70 70" fill="none" xmlns="http://www.w3.org/2000/svg">
<g id="&#235;&#147;&#177;&#234;&#184;&#137;&#235;&#179;&#128;&#235;&#143;&#153;">
<g id="icon_&#235;&#147;&#177;&#234;&#184;&#137;&#235;&#179;&#128;&#235;&#143;&#153;">
<circle id="Ellipse 11" cx="35" cy="35" r="35" fill="#8C98FF"/>
<path id="&#235;&#147;&#177;&#234;&#184;&#137;&#235;&#179;&#128;&#235;&#143;&#153;_2" d="M36.3887 49.4471C39.5479 48.0171 47 43.6 47 33.7476V27.7954C47 26.1185 47 25.2788 46.6733 24.6377C46.3857 24.0732 45.9256 23.6146 45.3611 23.327C44.7194 23 43.8805 23 42.2003 23H27.8003C26.1201 23 25.2794 23 24.6377 23.327C24.0732 23.6146 23.6146 24.0732 23.327 24.6377C23 25.2794 23 26.1201 23 27.8003V33.7476C23 43.5999 30.4517 48.0171 33.6109 49.4471C33.9458 49.5987 34.1141 49.6744 34.4932 49.7394C34.7323 49.7805 35.2692 49.7805 35.5083 49.7394C35.8861 49.6746 36.0526 49.5992 36.3852 49.4486L36.3887 49.4471Z" stroke="white" stroke-width="3" stroke-linecap="round" stroke-linejoin="round"/>
<path id="A" d="M40.2031 40.998H37.127L36.6289 38.8203H33.5039L32.9863 40.998H29.9688L33.4258 27.9609H36.7461L40.2031 40.998ZM36.0625 36.4766C35.6198 34.5365 35.2878 32.6908 35.0664 30.9395H35.0273C34.793 32.7428 34.4642 34.5885 34.041 36.4766H36.0625Z" fill="white"/>
</g>
</g>
</svg>
