<svg width="26" height="26" viewBox="0 0 26 26" fill="none" xmlns="http://www.w3.org/2000/svg">
<g id="icon_&#236;&#182;&#156;&#236;&#139;&#160;&#236;&#167;&#128;">
<rect id="Rectangle 65" width="26" height="26" rx="10" fill="#8C98FF"/>
<path id="&#236;&#182;&#156;&#236;&#139;&#160;&#236;&#167;&#128;" d="M15.184 12.0131L12.2691 14.8931L10.8116 13.4531M7.16797 16.1891V12.3386C7.16797 11.9539 7.16797 11.7614 7.21532 11.5824C7.25727 11.4238 7.32668 11.2736 7.41989 11.138C7.52508 10.9849 7.67126 10.8579 7.9643 10.6046L11.4634 7.57956C12.0066 7.10991 12.2783 6.87507 12.5842 6.78568C12.8539 6.70686 13.1415 6.70686 13.4113 6.78568C13.7174 6.87513 13.9894 7.1102 14.5335 7.58056L18.0314 10.6046C18.3245 10.8579 18.4707 10.9849 18.5759 11.1379C18.6691 11.2736 18.738 11.4238 18.7799 11.5824C18.8273 11.7614 18.8276 11.9539 18.8276 12.3386V16.1916C18.8276 16.9965 18.8276 17.3994 18.6689 17.7072C18.5292 17.9781 18.3056 18.1982 18.0314 18.3363C17.7199 18.4931 17.3126 18.4931 16.4979 18.4931H9.49764C8.68299 18.4931 8.27505 18.4931 7.96359 18.3363C7.68935 18.1982 7.46655 17.9781 7.32682 17.7072C7.16797 17.3991 7.16797 16.9956 7.16797 16.1891Z" stroke="white" stroke-width="1.44" stroke-linecap="round" stroke-linejoin="round"/>
</g>
</svg>
