<svg width="26" height="26" viewBox="0 0 26 26" fill="none" xmlns="http://www.w3.org/2000/svg">
<g id="icon_&#235;&#147;&#177;&#234;&#184;&#137;">
<rect id="Rectangle 65" width="26" height="26" rx="10" fill="#66DEB3"/>
<path id="&#235;&#147;&#177;&#234;&#184;&#137;&#235;&#179;&#128;&#235;&#143;&#153;" d="M13.6724 20.1946C15.2072 19.5082 18.8276 17.388 18.8276 12.6588V9.80178C18.8276 8.99688 18.8276 8.59383 18.6689 8.28609C18.5292 8.01514 18.3056 7.79501 18.0314 7.65695C17.7196 7.5 17.3121 7.5 16.4958 7.5H9.50004C8.68379 7.5 8.27536 7.5 7.96359 7.65695C7.68935 7.79501 7.46655 8.01514 7.32682 8.28609C7.16797 8.59413 7.16797 8.99767 7.16797 9.80414V12.6588C7.16797 17.388 10.7881 19.5082 12.3229 20.1946C12.4857 20.2674 12.5674 20.3037 12.7516 20.3349C12.8677 20.3546 13.1286 20.3546 13.2447 20.3349C13.4283 20.3038 13.5092 20.2676 13.6707 20.1953L13.6724 20.1946Z" stroke="white" stroke-width="1.44" stroke-linecap="round" stroke-linejoin="round"/>
<path id="A" d="M15.5267 16.1406H14.0323L13.7903 15.0953H12.2721L12.0207 16.1406H10.5547L12.2342 9.88281H13.8472L15.5267 16.1406ZM13.5151 13.9703C13.3001 13.0391 13.1388 12.1531 13.0312 11.3125H13.0122C12.8984 12.1781 12.7387 13.0641 12.5331 13.9703H13.5151Z" fill="white"/>
</g>
</svg>
