<svg width="20" height="21" viewBox="0 0 20 21" fill="none" xmlns="http://www.w3.org/2000/svg">
<path id="Union" fill-rule="evenodd" clip-rule="evenodd" d="M17 9.5C17 13.6421 13.6421 17 9.5 17C5.35786 17 2 13.6421 2 9.5C2 5.35786 5.35786 2 9.5 2C13.6421 2 17 5.35786 17 9.5ZM15.1431 17.1431C13.5652 18.31 11.6132 19 9.5 19C4.25329 19 0 14.7467 0 9.5C0 4.25329 4.25329 0 9.5 0C14.7467 0 19 4.25329 19 9.5C19 11.9126 18.1007 14.1151 16.619 15.7906L19.7071 18.8787C20.0976 19.2692 20.0976 19.9024 19.7071 20.2929C19.3166 20.6834 18.6834 20.6834 18.2929 20.2929L15.1431 17.1431Z" fill="black"/>
</svg>
