<svg width="22" height="20" viewBox="0 0 22 20" fill="none" xmlns="http://www.w3.org/2000/svg">
<g id="icon_&#235;&#139;&#164;&#236;&#154;&#180;&#235;&#161;&#156;&#235;&#147;&#156;">
<path id="Vector" d="M21 10C20.7348 10 20.4804 10.1054 20.2929 10.2929C20.1054 10.4804 20 10.7348 20 11V18H2V11C2 10.7348 1.89464 10.4804 1.70711 10.2929C1.51957 10.1054 1.26522 10 1 10C0.734784 10 0.48043 10.1054 0.292893 10.2929C0.105357 10.4804 0 10.7348 0 11V19C0 19.2652 0.105357 19.5196 0.292893 19.7071C0.48043 19.8946 0.734784 20 1 20H21C21.2652 20 21.5196 19.8946 21.7071 19.7071C21.8946 19.5196 22 19.2652 22 19V11C22 10.7348 21.8946 10.4804 21.7071 10.2929C21.5196 10.1054 21.2652 10 21 10Z" fill="#222222"/>
<path id="Vector_2" d="M11.0006 0C10.7354 0 10.481 0.105357 10.2935 0.292893C10.1059 0.48043 10.0006 0.734784 10.0006 1V12.586L7.70757 10.293C7.61532 10.1975 7.50498 10.1213 7.38297 10.0689C7.26097 10.0165 7.12975 9.9889 6.99697 9.98775C6.86419 9.9866 6.73251 10.0119 6.60962 10.0622C6.48672 10.1125 6.37507 10.1867 6.28117 10.2806C6.18728 10.3745 6.11303 10.4861 6.06275 10.609C6.01247 10.7319 5.98717 10.8636 5.98832 10.9964C5.98947 11.1292 6.01706 11.2604 6.06947 11.3824C6.12188 11.5044 6.19806 11.6148 6.29357 11.707L10.2936 15.707C10.3867 15.7996 10.4971 15.873 10.6186 15.923C10.7395 15.9738 10.8694 16 11.0006 16C11.1318 16 11.2616 15.9738 11.3826 15.923C11.504 15.873 11.6145 15.7996 11.7076 15.707L15.7076 11.707C15.8897 11.5184 15.9905 11.2658 15.9882 11.0036C15.986 10.7414 15.8808 10.4906 15.6954 10.3052C15.51 10.1198 15.2592 10.0146 14.997 10.0123C14.7348 10.01 14.4822 10.1108 14.2936 10.293L12.0006 12.586V1C12.0006 0.734784 11.8952 0.48043 11.7077 0.292893C11.5201 0.105357 11.2658 0 11.0006 0Z" fill="#222222"/>
</g>
</svg>
