<svg width="20" height="20" viewBox="0 0 20 20" fill="none" xmlns="http://www.w3.org/2000/svg">
<path id="Vector" d="M10 13.375L13.375 10M13.375 10L10 6.625M13.375 10H1M6.625 4.65466V4.60022C6.625 3.3401 6.625 2.70957 6.87024 2.22827C7.08595 1.80491 7.42991 1.46095 7.85327 1.24524C8.33457 1 8.9651 1 10.2252 1H15.4002C16.6603 1 17.2895 1 17.7708 1.24524C18.1942 1.46095 18.5393 1.80491 18.755 2.22827C19 2.7091 19 3.33887 19 4.59652V15.404C19 16.6617 19 17.2905 18.755 17.7714C18.5393 18.1947 18.1942 18.5393 17.7708 18.755C17.29 19 16.6611 19 15.4035 19H10.2215C8.96387 19 8.3341 19 7.85327 18.755C7.42991 18.5393 7.08595 18.1944 6.87024 17.771C6.625 17.2897 6.625 16.6601 6.625 15.4V15.3438" stroke="#2B38AC" stroke-width="2" stroke-linecap="round" stroke-linejoin="round"/>
</svg>
