<svg width="70" height="70" viewBox="0 0 70 70" fill="none" xmlns="http://www.w3.org/2000/svg">
<circle cx="35" cy="35" r="35" fill="#66DEB3"/>
<path d="M41 29H47C47.3978 29 47.7794 29.158 48.0607 29.4393C48.342 29.7206 48.5 30.1022 48.5 30.5V47L43.5005 42.8465C43.2308 42.6223 42.8912 42.4997 42.5405 42.5H30.5C30.1022 42.5 29.7206 42.342 29.4393 42.0607C29.158 41.7794 29 41.3978 29 41V36.5M41 29V24.5C41 24.1022 40.842 23.7206 40.5607 23.4393C40.2794 23.158 39.8978 23 39.5 23H23C22.6022 23 22.2206 23.158 21.9393 23.4393C21.658 23.7206 21.5 24.1022 21.5 24.5V41L26.4995 36.845C26.7695 36.623 27.1085 36.5 27.4595 36.5H29M41 29V35C41 35.3978 40.842 35.7794 40.5607 36.0607C40.2794 36.342 39.8978 36.5 39.5 36.5H29" stroke="white" stroke-width="3" stroke-linecap="round" stroke-linejoin="round"/>
</svg>
