<svg width="32" height="32" viewBox="0 0 32 32" fill="none" xmlns="http://www.w3.org/2000/svg">
<g id="Group 57">
<rect id="Rectangle 65" width="32" height="32" rx="12" fill="#FF9CE9"/>
<path id="Vector" d="M18.25 19.75V20.5C18.25 21.7426 17.2426 22.75 16 22.75C14.7574 22.75 13.75 21.7426 13.75 20.5V19.75M18.25 19.75H13.75M18.25 19.75H20.9429C21.2298 19.75 21.3739 19.75 21.4901 19.7108C21.712 19.636 21.8856 19.4617 21.9604 19.2398C21.9998 19.1232 21.9998 18.9786 21.9998 18.6895C21.9998 18.5629 21.9996 18.4997 21.9897 18.4393C21.971 18.3253 21.9268 18.2173 21.8594 18.1234C21.8238 18.0738 21.7786 18.0286 21.6894 17.9394L21.3972 17.6472C21.303 17.553 21.25 17.4251 21.25 17.2918V14.5C21.25 11.6005 18.8995 9.24999 16 9.25C13.1005 9.25001 10.75 11.6005 10.75 14.5V17.2918C10.75 17.4251 10.6969 17.553 10.6027 17.6472L10.3105 17.9393C10.2211 18.0288 10.1763 18.0738 10.1406 18.1234C10.0732 18.2173 10.0286 18.3253 10.0099 18.4393C10 18.4997 10 18.5629 10 18.6895C10 18.9786 10 19.1232 10.0393 19.2398C10.1142 19.4617 10.2886 19.636 10.5105 19.7108C10.6267 19.75 10.7703 19.75 11.0572 19.75H13.75" stroke="white" stroke-width="1.5" stroke-linecap="round" stroke-linejoin="round"/>
</g>
</svg>
