<svg width="70" height="70" viewBox="0 0 70 70" fill="none" xmlns="http://www.w3.org/2000/svg">
<g id="icon_&#236;&#131;&#129;&#234;&#184;&#136;&#235;&#170;&#133;&#236;&#132;&#184;">
<circle id="Ellipse 11" cx="35" cy="35" r="35" fill="#FF9CE9"/>
<path id="&#236;&#131;&#129;&#234;&#184;&#136;&#235;&#170;&#133;&#236;&#132;&#184;&#236;&#132;&#156;" d="M23 30.6987L32.1615 37.617L32.1645 37.6196C33.1818 38.3656 33.6907 38.7388 34.2481 38.8829C34.7408 39.0104 35.2588 39.0104 35.7515 38.8829C36.3094 38.7386 36.8198 38.3643 37.8389 37.617L47 30.6987M46.7003 29.2579L38.3018 22.5336C37.259 21.6987 36.7371 21.2813 36.1572 21.1156C35.6456 20.9694 35.1038 20.9616 34.5883 21.0936C34.004 21.2432 33.4713 21.6458 32.4058 22.4516L23.4043 29.2582C22.7057 29.7865 22.3568 30.0508 22.105 30.3846C21.8819 30.6803 21.7157 31.0147 21.6144 31.371C21.5 31.7732 21.5 32.2112 21.5 33.0871V42.3989C21.5 44.079 21.5 44.9195 21.827 45.5612C22.1146 46.1257 22.5732 46.5843 23.1377 46.872C23.7788 47.1986 24.6185 47.1986 26.2954 47.1986H43.7046C45.3815 47.1986 46.22 47.1986 46.8611 46.872C47.4256 46.5843 47.8857 46.1254 48.1733 45.5609C48.5 44.9198 48.5 44.0809 48.5 42.404V32.9884C48.5 32.1527 48.5 31.7323 48.3931 31.3439C48.2977 30.9976 48.1393 30.6712 47.9286 30.3802C47.6907 30.0519 47.3613 29.7871 46.7003 29.2579Z" stroke="white" stroke-width="3" stroke-linecap="round" stroke-linejoin="round"/>
</g>
</svg>
