<svg width="70" height="70" viewBox="0 0 70 70" fill="none" xmlns="http://www.w3.org/2000/svg">
<g id="icon_&#236;&#132;&#177;&#236;&#160;&#129;&#236;&#161;&#176;&#237;&#154;&#140;">
<circle id="Ellipse 11" cx="35" cy="35" r="35" fill="#66DEB3"/>
<path id="&#236;&#132;&#177;&#236;&#160;&#129;&#236;&#161;&#176;&#237;&#154;&#140;2" d="M39.4991 44.0005L37.0127 41.5142M36.5006 21.5013C36.3573 21.5 36.1961 21.5 36.0121 21.5H29.3003C27.6201 21.5 26.7794 21.5 26.1377 21.827C25.5732 22.1146 25.1146 22.5732 24.827 23.1377C24.5 23.7794 24.5 24.6201 24.5 26.3003V43.7003C24.5 45.3804 24.5 46.2201 24.827 46.8618C25.1146 47.4263 25.5732 47.8857 26.1377 48.1733C26.7788 48.5 27.6185 48.5 29.2954 48.5L40.7046 48.5C42.3815 48.5 43.22 48.5 43.8611 48.1733C44.4256 47.8857 44.8857 47.4263 45.1733 46.8618C45.5 46.2207 45.5 45.3822 45.5 43.7054V30.9885C45.5 30.8045 45.4998 30.6433 45.4985 30.5M36.5006 21.5013C36.9288 21.5052 37.1986 21.5211 37.4573 21.5832C37.7634 21.6567 38.0568 21.7779 38.3252 21.9424C38.6279 22.1279 38.8877 22.3877 39.4062 22.9062L44.0945 27.5945C44.6133 28.1133 44.8713 28.372 45.0568 28.6748C45.2213 28.9432 45.343 29.2359 45.4165 29.542C45.4786 29.8007 45.4946 30.0718 45.4985 30.5M36.5006 21.5013L36.5 25.7003C36.5 27.3805 36.5 28.2202 36.827 28.862C37.1146 29.4264 37.5732 29.8857 38.1377 30.1733C38.7788 30.5 39.6185 30.5 41.2954 30.5H45.4985M34.25 42.5C32.1789 42.5 30.5 40.8211 30.5 38.75C30.5 36.6789 32.1789 35 34.25 35C36.3211 35 38 36.6789 38 38.75C38 40.8211 36.3211 42.5 34.25 42.5Z" stroke="white" stroke-width="3" stroke-linecap="round" stroke-linejoin="round"/>
</g>
</svg>
