<svg width="32" height="32" viewBox="0 0 32 32" fill="none" xmlns="http://www.w3.org/2000/svg">
<g id="Group 57">
<rect id="Rectangle 65" width="32" height="32" rx="12" fill="#93E3FD"/>
<path id="Vector" d="M16 17.6172V15.3672M16 15.3672V13.1172M16 15.3672H13.75M16 15.3672H18.25M12.3427 21.1431L11.1997 22.0574C10.5756 22.5567 10.2634 22.8065 10.0007 22.8068C9.77233 22.807 9.55633 22.7032 9.41384 22.5247C9.25 22.3194 9.25 21.9199 9.25 21.1206V12.5173C9.25 11.6773 9.25 11.2569 9.41349 10.936C9.5573 10.6538 9.7866 10.4245 10.0688 10.2807C10.3897 10.1172 10.8101 10.1172 11.6501 10.1172H20.3501C21.1902 10.1172 21.61 10.1172 21.9309 10.2807C22.2132 10.4245 22.4429 10.6538 22.5867 10.936C22.75 11.2566 22.75 11.6764 22.75 12.5149V18.2199C22.75 19.0583 22.75 19.4775 22.5867 19.7981C22.4429 20.0803 22.2133 20.31 21.931 20.4539C21.6105 20.6172 21.1911 20.6172 20.3527 20.6172H13.8419C13.5299 20.6172 13.3737 20.6172 13.2245 20.6478C13.0921 20.675 12.9641 20.7198 12.8438 20.7812C12.7086 20.8503 12.5872 20.9474 12.3454 21.1409L12.3427 21.1431Z" stroke="white" stroke-width="1.5" stroke-linecap="round" stroke-linejoin="round"/>
</g>
</svg>
