<svg width="32" height="32" viewBox="0 0 32 32" fill="none" xmlns="http://www.w3.org/2000/svg">
<g id="Group 57">
<rect id="Rectangle 65" width="32" height="32" rx="12" fill="#FFC266"/>
<path id="Vector" d="M9.25 11.5V19.6C9.25 20.4401 9.25 20.8598 9.41349 21.1807C9.5573 21.4629 9.7866 21.6929 10.0688 21.8367C10.3894 22 10.8092 22 11.6477 22H20.3523C21.1908 22 21.61 22 21.9305 21.8367C22.2128 21.6929 22.4429 21.4631 22.5867 21.1808C22.7502 20.86 22.7502 20.4399 22.7502 19.5999L22.7502 13.8998C22.7502 13.0598 22.7502 12.6397 22.5867 12.3188C22.4429 12.0366 22.2129 11.8073 21.9307 11.6635C21.6098 11.5 21.1901 11.5 20.35 11.5H16M9.25 11.5H16M9.25 11.5C9.25 10.6716 9.92157 10 10.75 10H13.5059C13.8728 10 14.0566 10 14.2293 10.0414C14.3823 10.0782 14.5284 10.1389 14.6626 10.2212C14.8139 10.3139 14.9439 10.4439 15.2031 10.7031L16 11.5" stroke="white" stroke-width="1.5" stroke-linecap="round" stroke-linejoin="round"/>
</g>
</svg>
