<svg width="70" height="70" viewBox="0 0 70 70" fill="none" xmlns="http://www.w3.org/2000/svg">
<g id="icon_&#236;&#163;&#188;&#236;&#132;&#160;&#237;&#134;&#181;&#235;&#179;&#180;">
<circle id="Ellipse 11" cx="35" cy="35" r="35" fill="#FB8B9F"/>
<path id="&#236;&#163;&#188;&#236;&#132;&#160;&#237;&#134;&#181;&#235;&#179;&#180;" d="M32.4421 38.2402L39.7113 30.971M47.1474 26.5347L41.0114 46.4766C40.4616 48.2637 40.1864 49.1577 39.7121 49.454C39.3008 49.7111 38.7914 49.754 38.3434 49.5681C37.8268 49.3538 37.4075 48.5166 36.571 46.8437L32.6845 39.0708C32.5518 38.8053 32.4854 38.6731 32.3967 38.5581C32.318 38.456 32.2272 38.3641 32.1251 38.2854C32.0127 38.1987 31.8828 38.1338 31.6291 38.007L23.8384 34.1116C22.1654 33.2751 21.3288 32.8565 21.1145 32.3398C20.9286 31.8918 20.971 31.382 21.228 30.9706C21.5244 30.4963 22.4183 30.2207 24.206 29.6706L44.1479 23.5347C45.5534 23.1022 46.2563 22.8862 46.7311 23.0605C47.1446 23.2123 47.4705 23.5379 47.6223 23.9514C47.7965 24.4259 47.5803 25.1286 47.1483 26.5326L47.1474 26.5347Z" stroke="white" stroke-width="3" stroke-linecap="round" stroke-linejoin="round"/>
</g>
</svg>
