<svg width="70" height="70" viewBox="0 0 70 70" fill="none" xmlns="http://www.w3.org/2000/svg">
<circle cx="35" cy="35" r="35" fill="#FFC266"/>
<path d="M32 23H27.8C26.12 23 25.28 23 24.638 23.327C24.0735 23.6146 23.6146 24.0735 23.327 24.638C23 25.28 23 26.12 23 27.8V42.2C23 43.88 23 44.72 23.327 45.362C23.6146 45.9265 24.0735 46.3854 24.638 46.673C25.2785 47 26.1185 47 27.7955 47H42.2045C43.8815 47 44.72 47 45.3605 46.673C45.926 46.385 46.385 45.926 46.673 45.362C47 44.72 47 43.8815 47 42.2045V38M41 24.5L32 33.5V38H36.5L45.5 29M41 24.5L45.5 20L50 24.5L45.5 29M41 24.5L45.5 29" stroke="white" stroke-width="3" stroke-linecap="round" stroke-linejoin="round"/>
</svg>
