<svg width="70" height="70" viewBox="0 0 70 70" fill="none" xmlns="http://www.w3.org/2000/svg">
<g id="icon_&#236;&#160;&#156;&#236;&#158;&#172;&#236;&#178;&#152;&#235;&#182;&#132;">
<circle id="Ellipse 11" cx="35" cy="35" r="35" fill="#F8DA74"/>
<path id="&#236;&#158;&#172;&#236;&#160;&#156;&#236;&#178;&#152;&#235;&#182;&#132;2" d="M34.9365 29.5001V35.5001M23.5049 38.7998C22.1407 41.1626 21.4589 42.3444 21.5607 43.3138C21.6496 44.1594 22.0934 44.9276 22.7812 45.4273C23.5696 46.0001 24.9329 46.0001 27.6593 46.0001H42.2137C44.9402 46.0001 46.3033 46.0001 47.0916 45.4273C47.7794 44.9276 48.2234 44.1594 48.3123 43.3138C48.4142 42.3444 47.7325 41.1626 46.3684 38.7998L39.0938 26.1998C37.7296 23.837 37.0472 22.6558 36.1567 22.2594C35.38 21.9135 34.4925 21.9135 33.7158 22.2594C32.8257 22.6557 32.1437 23.8369 30.7807 26.1977L23.5049 38.7998ZM35.0127 40.0001V40.1501L34.8618 40.1504V40.0001H35.0127Z" stroke="white" stroke-width="3" stroke-linecap="round" stroke-linejoin="round"/>
</g>
</svg>
