<svg width="70" height="70" viewBox="0 0 70 70" fill="none" xmlns="http://www.w3.org/2000/svg">
<circle cx="35" cy="35" r="35" fill="#F8DA74"/>
<path d="M32 42.5L35 39.5M35 39.5L38 36.5M35 39.5L32 36.5M35 39.5L38 42.5M36.5 21.5H29.3C27.62 21.5 26.78 21.5 26.138 21.827C25.5735 22.1146 25.1146 22.5735 24.827 23.138C24.5 23.78 24.5 24.62 24.5 26.3V43.7C24.5 45.38 24.5 46.22 24.827 46.862C25.1146 47.4265 25.5735 47.8854 26.138 48.173C26.7785 48.5 27.6185 48.5 29.2955 48.5H40.7045C42.3815 48.5 43.22 48.5 43.8605 48.173C44.426 47.885 44.885 47.426 45.173 46.862C45.5 46.22 45.5 45.383 45.5 43.706V30.5M36.5 21.5C36.929 21.5045 37.199 21.521 37.4585 21.5825C37.7665 21.6575 38.0555 21.7775 38.3255 21.9425C38.6285 22.1285 38.888 22.388 39.4055 22.907L44.0945 27.5945C44.6135 28.1135 44.8715 28.3715 45.0575 28.6745C45.2225 28.9455 45.3425 29.2345 45.4175 29.5415C45.4775 29.801 45.4955 30.0725 45.5 30.5M36.5 21.5V25.7C36.5 27.38 36.5 28.22 36.827 28.862C37.1146 29.4265 37.5735 29.8854 38.138 30.173C38.7785 30.5 39.6185 30.5 41.2955 30.5H45.5" stroke="white" stroke-width="3" stroke-linecap="round" stroke-linejoin="round"/>
</svg>
