<svg width="70" height="70" viewBox="0 0 70 70" fill="none" xmlns="http://www.w3.org/2000/svg">
<g id="icon_&#236;&#132;&#160;&#236;&#136;&#152;&#236;&#160;&#149;&#235;&#179;&#180;">
<circle id="Ellipse 11" cx="35" cy="35" r="35" fill="#FFC266"/>
<path id="&#236;&#132;&#160;&#236;&#136;&#152;&#236;&#160;&#149;&#235;&#179;&#180;" d="M49 45.4999C49 42.8875 46.4956 40.665 43 39.8413M40 45.5C40 42.1863 35.9706 39.5 31 39.5C26.0294 39.5 22 42.1863 22 45.5M40 35C43.3137 35 46 32.3137 46 29C46 25.6863 43.3137 23 40 23M31 35C27.6863 35 25 32.3137 25 29C25 25.6863 27.6863 23 31 23C34.3137 23 37 25.6863 37 29C37 32.3137 34.3137 35 31 35Z" stroke="white" stroke-width="3" stroke-linecap="round" stroke-linejoin="round"/>
</g>
</svg>
