<svg width="31" height="31" viewBox="0 0 31 31" fill="none" xmlns="http://www.w3.org/2000/svg">
<path id="Vector" d="M20 12.5L14 18.5L11 15.5M8.4976 3.40625L3.40625 8.4976L3.40163 8.50194C2.88585 9.01771 2.62736 9.27621 2.44238 9.57806C2.2779 9.84648 2.15638 10.1394 2.08289 10.4456C2 10.7908 2 11.1576 2 11.8914V19.1087C2 19.8424 2 20.2093 2.08289 20.5546C2.15638 20.8607 2.2779 21.1532 2.44238 21.4216C2.62785 21.7243 2.88773 21.9842 3.40625 22.5027L8.4976 27.594C9.01645 28.1129 9.27531 28.3717 9.57806 28.5573C9.84648 28.7218 10.1387 28.8437 10.4448 28.9172C10.7896 29 11.1557 29 11.8873 29H19.1113C19.8428 29 20.2105 29 20.5553 28.9172C20.8614 28.8437 21.1539 28.7218 21.4224 28.5573C21.7251 28.3718 21.9846 28.1129 22.5034 27.594L27.5948 22.5027C28.1136 21.9838 28.3725 21.7244 28.558 21.4216C28.7225 21.1532 28.843 20.8607 28.9165 20.5545C28.9994 20.2093 29 19.8424 29 19.1087V11.8914C29 11.1576 28.9994 10.7908 28.9165 10.4456C28.843 10.1394 28.7225 9.84648 28.558 9.57807C28.3725 9.27533 28.1136 9.01641 27.5948 8.49759L22.5034 3.40625C21.9849 2.88772 21.725 2.62785 21.4224 2.44238C21.1539 2.2779 20.8614 2.15638 20.5553 2.08289C20.21 2 19.8417 2 19.1079 2H11.8906C11.1569 2 10.7901 2 10.4448 2.08289C10.1387 2.15638 9.84648 2.2779 9.57806 2.44238C9.27806 2.62622 9.02159 2.8827 8.5121 3.3922L8.4976 3.40625Z" stroke="#FB8B9F" stroke-width="3" stroke-linecap="round" stroke-linejoin="round"/>
</svg>
