<svg width="28" height="28" viewBox="0 0 28 28" fill="none" xmlns="http://www.w3.org/2000/svg">
<g id="icon_&#235;&#147;&#177;&#234;&#184;&#137;">
<rect id="Rectangle 65" width="28" height="28" rx="10" fill="#66DEB3"/>
<path id="&#235;&#147;&#177;&#234;&#184;&#137;&#235;&#179;&#128;&#235;&#143;&#153;" d="M14.6648 20.6087C16.1813 19.9223 19.7583 17.802 19.7583 13.0729V10.2158C19.7583 9.41094 19.7583 9.00789 19.6015 8.70016C19.4634 8.4292 19.2426 8.20907 18.9716 8.07101C18.6636 7.91406 18.2609 7.91406 17.4544 7.91406H10.5424C9.73595 7.91406 9.33241 7.91406 9.02437 8.07101C8.75342 8.20907 8.53329 8.4292 8.39523 8.70016C8.23828 9.00819 8.23828 9.41173 8.23828 10.2182V13.0729C8.23828 17.802 11.8151 19.9223 13.3315 20.6087C13.4923 20.6814 13.5731 20.7178 13.755 20.749C13.8698 20.7687 14.1275 20.7687 14.2423 20.749C14.4236 20.7179 14.5035 20.6817 14.6632 20.6094L14.6648 20.6087Z" stroke="white" stroke-width="1.44" stroke-linecap="round" stroke-linejoin="round"/>
<path id="A" d="M16.4984 16.5547H15.0219L14.7828 15.5094H13.2828L13.0344 16.5547H11.5859L13.2453 10.2969H14.8391L16.4984 16.5547ZM14.5109 14.3844C14.2984 13.4531 14.1391 12.5672 14.0328 11.7266H14.0141C13.9016 12.5922 13.7437 13.4781 13.5406 14.3844H14.5109Z" fill="white"/>
</g>
</svg>
