<svg width="28" height="28" viewBox="0 0 28 28" fill="none" xmlns="http://www.w3.org/2000/svg">
<g id="icon_&#236;&#182;&#156;&#236;&#139;&#160;&#236;&#167;&#128;">
<rect id="Rectangle 65" width="28" height="28" rx="10" fill="#8C98FF"/>
<path id="&#236;&#182;&#156;&#236;&#139;&#160;&#236;&#167;&#128;" d="M16.1583 13.0131L13.2783 15.8931L11.8383 14.4531M8.23828 17.1891V13.3386C8.23828 12.9539 8.23828 12.7614 8.28506 12.5824C8.32652 12.4238 8.39509 12.2736 8.48719 12.138C8.59111 11.9849 8.73554 11.8579 9.02508 11.6046L12.4822 8.57956C13.019 8.10991 13.2874 7.87507 13.5896 7.78568C13.8562 7.70686 14.1403 7.70686 14.4068 7.78568C14.7093 7.87513 14.9781 8.1102 15.5156 8.58056L18.9716 11.6046C19.2612 11.8579 19.4056 11.9849 19.5096 12.1379C19.6017 12.2736 19.6697 12.4238 19.7112 12.5824C19.758 12.7614 19.7583 12.9539 19.7583 13.3386V17.1916C19.7583 17.9965 19.7583 18.3994 19.6015 18.7072C19.4634 18.9781 19.2426 19.1982 18.9716 19.3363C18.6639 19.4931 18.2614 19.4931 17.4565 19.4931H10.5401C9.73516 19.4931 9.33211 19.4931 9.02437 19.3363C8.75342 19.1982 8.53329 18.9781 8.39523 18.7072C8.23828 18.3991 8.23828 17.9956 8.23828 17.1891Z" stroke="white" stroke-width="1.44" stroke-linecap="round" stroke-linejoin="round"/>
</g>
</svg>
