<svg width="26" height="26" viewBox="0 0 26 26" fill="none" xmlns="http://www.w3.org/2000/svg">
<g id="icon_&#234;&#184;&#176;&#236;&#136;&#152;">
<rect id="Rectangle 65" width="26" height="26" rx="10" fill="#FFC266"/>
<path id="&#234;&#184;&#176;&#236;&#136;&#152;" d="M16.7116 18.2788C15.7776 17.2481 14.4205 16.5995 12.9101 16.5995C11.3997 16.5995 10.0425 17.2481 9.10849 18.2788M12.9101 19.4795C9.28792 19.4795 6.35156 16.5783 6.35156 12.9995C6.35156 9.42073 9.28792 6.51953 12.9101 6.51953C16.5323 6.51953 19.4687 9.42073 19.4687 12.9995C19.4687 16.5783 16.5323 19.4795 12.9101 19.4795ZM12.9101 14.4395C11.7027 14.4395 10.7239 13.4725 10.7239 12.2795C10.7239 11.0866 11.7027 10.1195 12.9101 10.1195C14.1175 10.1195 15.0963 11.0866 15.0963 12.2795C15.0963 13.4725 14.1175 14.4395 12.9101 14.4395Z" stroke="white" stroke-width="1.44" stroke-linecap="round" stroke-linejoin="round"/>
</g>
</svg>
