<svg width="28" height="28" viewBox="0 0 28 28" fill="none" xmlns="http://www.w3.org/2000/svg">
<g id="icon_&#234;&#184;&#176;&#236;&#136;&#152;">
<rect id="Rectangle 65" width="28" height="28" rx="10" fill="#FFC266"/>
<g id="icon">
<path id="&#234;&#184;&#176;&#236;&#136;&#152;" d="M17.7555 19.2436C16.8327 18.213 15.4918 17.5644 13.9995 17.5644C12.5072 17.5644 11.1663 18.213 10.2434 19.2436M13.9995 20.4444C10.4207 20.4444 7.51953 17.5432 7.51953 13.9644C7.51953 10.3856 10.4207 7.48438 13.9995 7.48438C17.5783 7.48438 20.4795 10.3856 20.4795 13.9644C20.4795 17.5432 17.5783 20.4444 13.9995 20.4444ZM13.9995 15.4044C12.8066 15.4044 11.8395 14.4373 11.8395 13.2444C11.8395 12.0514 12.8066 11.0844 13.9995 11.0844C15.1925 11.0844 16.1595 12.0514 16.1595 13.2444C16.1595 14.4373 15.1925 15.4044 13.9995 15.4044Z" stroke="white" stroke-width="1.44" stroke-linecap="round" stroke-linejoin="round"/>
</g>
</g>
</svg>
