<svg width="30" height="30" viewBox="0 0 30 30" fill="none" xmlns="http://www.w3.org/2000/svg">
<path id="icon_&#236;&#150;&#188;&#234;&#181;&#180;" d="M30 4.23077V10.3846C30 11.0217 29.4832 11.5385 28.8462 11.5385C28.2091 11.5385 27.6923 11.0217 27.6923 10.3846V4.23077C27.6923 3.17 26.83 2.30769 25.7692 2.30769H19.6154C18.9783 2.30769 18.4615 1.79092 18.4615 1.15385C18.4615 0.516769 18.9783 0 19.6154 0H25.7692C28.1025 0 30 1.89754 30 4.23077ZM28.8462 18.4615C28.2091 18.4615 27.6923 18.9783 27.6923 19.6154V25.7692C27.6923 26.83 26.83 27.6923 25.7692 27.6923H19.6154C18.9783 27.6923 18.4615 28.2091 18.4615 28.8462C18.4615 29.4832 18.9783 30 19.6154 30H25.7692C28.1025 30 30 28.1025 30 25.7692V19.6154C30 18.9783 29.4832 18.4615 28.8462 18.4615ZM10.3846 27.6923H4.23077C3.17 27.6923 2.30769 26.83 2.30769 25.7692V19.6154C2.30769 18.9783 1.79092 18.4615 1.15385 18.4615C0.516769 18.4615 0 18.9783 0 19.6154V25.7692C0 28.1025 1.89754 30 4.23077 30H10.3846C11.0217 30 11.5385 29.4832 11.5385 28.8462C11.5385 28.2091 11.0217 27.6923 10.3846 27.6923ZM11.5385 1.15385C11.5385 0.516769 11.0217 0 10.3846 0H4.23077C1.89754 0 0 1.89754 0 4.23077V10.3846C0 11.0217 0.516769 11.5385 1.15385 11.5385C1.79092 11.5385 2.30769 11.0217 2.30769 10.3846V4.23077C2.30769 3.17 3.17 2.30769 4.23077 2.30769H10.3846C11.0217 2.30769 11.5385 1.79092 11.5385 1.15385ZM7.69231 8.84615V10.3846C7.69231 11.0217 8.20908 11.5385 8.84615 11.5385C9.48323 11.5385 10 11.0217 10 10.3846V8.84615C10 8.20908 9.48323 7.69231 8.84615 7.69231C8.20908 7.69231 7.69231 8.20908 7.69231 8.84615ZM21.1538 11.5385C21.7909 11.5385 22.3077 11.0217 22.3077 10.3846V8.84615C22.3077 8.20908 21.7909 7.69231 21.1538 7.69231C20.5168 7.69231 20 8.20908 20 8.84615V10.3846C20 11.0217 20.5168 11.5385 21.1538 11.5385ZM15.6926 17.3843C15.918 17.6097 16.2132 17.7223 16.5085 17.7223C16.8037 17.7223 17.0997 17.6097 17.3251 17.3843C18.6142 16.0937 18.9326 14.1315 18.1175 12.5015L16.8014 9.86938C16.5174 9.29692 15.824 9.07015 15.2532 9.35262C14.6831 9.638 14.4525 10.3306 14.7372 10.9002L16.0534 13.5323C16.4237 14.2745 16.2788 15.1654 15.692 15.7529C15.242 16.2037 15.2418 16.9337 15.6926 17.3843ZM22.186 20.1308C22.4685 19.5658 22.2408 18.8838 21.6782 18.5954C21.1171 18.3069 20.4229 18.5308 20.1277 19.0882C20.0743 19.1888 18.7898 21.5386 15 21.5386C11.2102 21.5386 9.92569 19.1889 9.87831 19.1002C9.59292 18.5277 8.90169 18.3009 8.33015 18.5834C7.76 18.8688 7.52938 19.5614 7.81415 20.1309C7.89 20.2826 9.732 23.8463 15.0002 23.8463C20.2683 23.8463 22.1102 20.2825 22.186 20.1308Z" fill="#6574FF"/>
</svg>
