<svg width="510" height="180" viewBox="0 0 510 180" fill="none" xmlns="http://www.w3.org/2000/svg">
<path d="M63.1533 34.4502C62.5416 26.3353 56.578 21.5888 45.874 21.5888C35.323 21.5888 29.971 26.1821 29.8181 32.4597C29.6652 39.3498 36.3934 42.7182 46.3328 44.8618L55.9663 47.1585C77.2213 51.9049 89.6073 62.4697 89.7602 80.2307C89.6073 101.207 73.3985 113.915 45.874 113.915C18.3496 113.915 0.45874 101.36 0 75.9435H25.0778C25.6895 86.6614 33.641 92.1734 45.5682 92.1734C56.578 92.1734 63.1532 87.2738 63.3062 80.2307C63.1532 73.7999 57.4955 70.4315 45.2624 67.6755L33.641 64.9195C14.5268 60.4792 2.90536 50.9863 2.90536 34.2971C2.75244 13.7801 20.9491 0 46.027 0C71.5635 0 87.9252 13.9332 88.2311 34.4502H63.1533Z" fill="#EDEDED"/>
<path d="M205.047 56.9576C205.047 93.5514 182.11 113.915 152.445 113.915C122.627 113.915 99.843 93.3983 99.843 56.9576C99.843 20.3639 122.627 0 152.445 0C182.11 0 205.047 20.3639 205.047 56.9576ZM178.44 56.9576C178.44 34.9095 168.654 22.9668 152.445 22.9668C136.236 22.9668 126.45 34.9095 126.45 56.9576C126.45 79.0058 136.236 90.9485 152.445 90.9485C168.654 90.9485 178.44 79.0058 178.44 56.9576Z" fill="#EDEDED"/>
<path d="M216.497 112.384V1.53112H261.759C286.684 1.53112 301.976 15.6174 301.976 38.278C301.976 53.5126 295.018 64.4601 282.861 69.9722L303.954 112.384H277.356L257.019 74.2593H242.492V112.384H216.497ZM242.492 53.4361H256.254C268.487 53.4361 275.063 48.6896 275.063 38.278C275.063 27.8664 268.487 22.6606 256.254 22.6606H242.492V53.4361Z" fill="#EDEDED"/>
<path d="M317.654 112.384V1.53112H362.916C387.841 1.53112 403.133 15.6174 403.133 38.278C403.133 53.5126 396.175 64.4601 384.018 69.9722L407.108 112.384H378.513L358.176 74.2593H343.649V112.384H317.654ZM343.649 53.4361H357.411C369.645 53.4361 376.22 48.6896 376.22 38.278C376.22 27.8664 369.645 22.6606 357.411 22.6606H343.649V53.4361Z" fill="#EDEDED"/>
<path d="M404.112 1.53112H433.319L457.173 48.0771H458.091L481.945 1.53112H510L470.63 74.8717V112.384H444.634V74.8717L404.112 1.53112Z" fill="#EDEDED"/>
<ellipse cx="232" cy="175.5" rx="15" ry="4.5" fill="#333333" fill-opacity="0.15"/>
<ellipse cx="274.5" cy="175.5" rx="14.5" ry="4.5" fill="#333333" fill-opacity="0.15"/>
<path d="M212.981 62.2165C212.957 62.1566 212.961 62.0894 212.991 62.0325C215.659 56.9961 216.399 51.1578 215.073 45.6135C213.747 40.0692 210.446 35.2002 205.789 31.9206C201.132 28.641 195.44 27.1764 189.781 27.8016C184.122 28.4268 178.886 31.099 175.055 35.3164C171.225 39.5337 169.063 45.0063 168.976 50.7068C168.889 56.4072 170.882 61.9434 174.583 66.2762C178.283 70.6089 183.435 73.4402 189.072 74.2384C194.709 75.0366 200.443 73.747 205.198 70.6116C205.246 70.5801 205.305 70.5688 205.361 70.58L212.762 72.044C214.696 72.4265 216.286 70.5135 215.556 68.682L212.981 62.2165Z" fill="white" stroke="#222222" stroke-width="1.61687" stroke-linejoin="round"/>
<path fill-rule="evenodd" clip-rule="evenodd" d="M188.866 40.3776C188.725 38.6547 190.839 37.4219 192.914 37.4219C194.989 37.4219 197.103 38.6547 196.962 40.3776L195.951 53.5636C195.939 54.1251 195.62 54.6617 195.062 55.0595C194.492 55.4652 193.72 55.6931 192.914 55.6931C192.108 55.6931 191.336 55.4652 190.766 55.0595C190.208 54.6617 189.889 54.1251 189.877 53.5636L188.866 40.3776Z" fill="#4D5DF2"/>
<path d="M195.955 60.7684C195.955 62.4502 194.593 63.8136 192.914 63.8136C191.234 63.8136 189.873 62.4502 189.873 60.7684C189.873 59.0866 191.234 57.7232 192.914 57.7232C194.593 57.7232 195.955 59.0866 195.955 60.7684Z" fill="#4D5DF2"/>
<path d="M217.764 122.239C215.022 123.629 212.525 125.312 210.273 127.287C204.777 132.101 202.712 136.728 204.089 141.18C205.209 144.767 208.033 147.326 212.548 148.845C215.675 149.943 220.891 147.863 228.195 142.582C232.653 139.322 236.981 135.629 241.194 131.493C241.252 131.435 241.31 131.376 241.345 131.341L241.94 130.687C242.127 130.418 243.084 129.705 244.799 128.572C246.503 127.404 246.981 125.733 246.258 123.524C245.744 121.994 244.974 120.86 243.959 120.124C242.36 118.956 239.898 118.395 236.561 118.406C232.664 118.488 229.245 118.804 226.293 119.341C223.365 119.902 220.529 120.872 217.776 122.239H217.764Z" fill="white"/>
<path d="M214.347 149.903C213.588 149.903 212.9 149.798 212.282 149.576C207.544 147.987 204.534 145.241 203.332 141.408C201.874 136.664 204.032 131.71 209.75 126.697C212.048 124.688 214.627 122.958 217.427 121.556C220.228 120.154 223.168 119.149 226.155 118.588C229.119 118.027 232.608 117.712 236.528 117.63C240.064 117.56 242.654 118.214 244.404 119.488C245.548 120.306 246.411 121.579 246.983 123.262C248.033 126.452 246.609 128.251 245.221 129.198C243.027 130.658 242.631 131.044 242.561 131.126L241.919 131.838L241.825 131.932L241.744 132.014C237.52 136.162 233.121 139.913 228.652 143.184C222.445 147.671 217.742 149.879 214.359 149.879L214.347 149.903ZM236.726 119.196H236.563C232.736 119.278 229.34 119.593 226.458 120.131C223.611 120.668 220.811 121.615 218.139 122.958C215.467 124.302 212.993 125.961 210.788 127.877C205.572 132.446 203.566 136.851 204.826 140.952C205.876 144.318 208.478 146.654 212.783 148.103C215.654 149.108 220.683 147.04 227.73 141.946C232.141 138.721 236.481 135.017 240.635 130.939L241.347 130.156C241.417 130.051 241.65 129.712 244.346 127.912C245.758 126.943 246.119 125.622 245.501 123.753C245.034 122.386 244.357 121.369 243.482 120.75C242.047 119.71 239.772 119.184 236.703 119.184L236.726 119.196Z" fill="#222222"/>
<path d="M258.745 107.01C255.956 107.536 253.856 108.845 252.432 110.959C250.133 114.348 249.783 117.877 251.382 121.534C251.709 122.317 252.467 123.719 253.657 125.752C254.591 127.364 255.162 128.65 255.372 129.585C256.539 136.198 259.281 141.176 263.599 144.506C268.231 148.093 273.68 148.852 279.922 146.784C282.466 145.931 284.251 144.412 285.29 142.227C286.223 140.264 286.433 138.032 285.931 135.532C285.43 133.09 284.368 130.917 282.758 128.989C281.054 126.979 279.047 125.647 276.749 125.028C276.912 126.64 276.959 128.346 276.889 130.134C276.947 128.346 276.9 126.64 276.749 125.028C276.387 121.522 275.547 118.426 274.205 115.762C272.49 112.373 270.109 109.896 267.076 108.33C264.345 106.94 261.568 106.508 258.756 107.022L258.745 107.01Z" fill="white"/>
<path d="M273.425 148.681C269.656 148.681 266.225 147.489 263.145 145.105C258.688 141.658 255.817 136.482 254.627 129.693C254.44 128.875 253.892 127.66 253.005 126.118C251.792 124.038 251.033 122.624 250.695 121.818C249.003 117.927 249.376 114.118 251.827 110.507C253.367 108.229 255.654 106.792 258.641 106.231C261.605 105.682 264.568 106.149 267.45 107.61C270.624 109.245 273.133 111.851 274.918 115.38C276.225 117.997 277.088 121.023 277.485 124.4C279.714 125.113 281.697 126.48 283.366 128.455C285.058 130.476 286.178 132.79 286.715 135.337C287.251 138.001 287.006 140.42 286.014 142.523C284.894 144.895 282.934 146.566 280.192 147.489C277.835 148.272 275.583 148.657 273.425 148.657V148.681ZM261.033 107.563C260.333 107.563 259.621 107.633 258.909 107.761C256.307 108.252 254.405 109.432 253.099 111.384C250.94 114.574 250.613 117.787 252.107 121.21C252.422 121.958 253.18 123.349 254.335 125.347C255.316 127.053 255.899 128.373 256.132 129.39C257.264 135.816 259.936 140.677 264.078 143.878C268.536 147.337 273.646 148.038 279.679 146.04C282.036 145.257 283.646 143.89 284.591 141.892C285.443 140.093 285.641 138.001 285.174 135.676C284.696 133.386 283.681 131.294 282.164 129.483C280.845 127.929 279.317 126.796 277.625 126.13C277.707 127.427 277.718 128.77 277.672 130.149C277.66 130.581 277.252 130.873 276.867 130.897C276.435 130.885 276.097 130.523 276.12 130.091C276.178 128.35 276.132 126.667 275.98 125.09C275.63 121.689 274.801 118.663 273.518 116.093C271.884 112.868 269.597 110.484 266.727 109C264.848 108.042 262.947 107.563 261.021 107.563H261.033Z" fill="#222222"/>
<path d="M274.158 170.68C278.662 173.624 283.68 175.097 289.245 175.097H304.297C305.931 175.097 307.413 174.711 308.708 173.94C310.575 172.842 311.123 171.206 310.353 169.056C309.023 165.667 306.771 163.716 303.609 163.202C301.392 162.805 299.49 163.027 297.915 163.856C295.989 164.838 293.166 165.387 289.455 165.504C284.088 165.737 279.841 164.476 276.702 161.73C273.493 158.902 269.829 156.717 265.722 155.163C262.735 154.018 260.437 153.445 258.815 153.445C255.536 153.445 253.424 153.539 252.467 153.726C249.235 154.415 247.613 156.051 247.613 158.645C247.613 161.239 248.29 162.828 249.632 163.529C250.32 163.903 250.974 164.008 251.627 163.845C255.851 163.634 259.982 164.207 264.007 165.562C267.204 166.661 270.576 168.366 274.147 170.668L274.158 170.68Z" fill="white"/>
<path d="M297.88 163.792L297.285 164.038C299.373 166.012 300.598 169.67 300.96 175.033H304.262C305.896 175.033 307.377 174.659 308.673 173.911C310.516 172.789 311.065 171.153 310.318 168.992C308.988 165.627 306.736 163.687 303.574 163.173C301.357 162.776 299.455 162.986 297.88 163.792ZM260.191 164.482C262.49 164.984 264.789 165.744 267.099 166.783C268.779 164.038 269.934 160.918 270.588 157.412C268.476 156.244 266.259 155.274 263.937 154.48C262.233 157.202 260.997 160.532 260.203 164.482M254.311 163.757C253.692 160.065 254.754 156.595 257.519 153.358C254.906 153.311 252.841 153.522 251.335 153.977C248.85 154.783 247.602 156.326 247.602 158.581C247.602 161.14 248.278 162.776 249.62 163.5C250.309 163.851 250.974 163.944 251.639 163.781L254.311 163.745M285.978 165.405C286.772 167.917 287.052 171.095 286.818 174.939C287.402 174.998 288.195 175.033 289.21 175.033H293.469C293.527 171.235 292.932 167.975 291.66 165.253C289.922 165.522 288.02 165.58 285.966 165.405M274.123 170.616C275.722 171.691 277.425 172.579 279.257 173.268C281.066 170.324 282.023 167.461 282.151 164.704C279.969 164.038 278.149 163.033 276.679 161.677H276.62C275.827 164.435 274.357 167.029 272.21 169.436L274.135 170.616H274.123Z" fill="#222222"/>
<path d="M304.321 175.916H289.269C283.587 175.916 278.371 174.386 273.762 171.371C270.274 169.139 266.901 167.445 263.763 166.347C259.901 165.05 255.875 164.489 251.78 164.676C250.974 164.863 250.134 164.723 249.306 164.279C247.696 163.437 246.879 161.556 246.879 158.705C246.879 156.637 247.824 153.985 252.351 153.026C253.378 152.828 255.49 152.734 258.827 152.734C260.577 152.734 262.934 153.307 266.038 154.499C270.204 156.1 273.984 158.355 277.251 161.206C279.41 163.134 282.245 164.302 285.687 164.699C288.242 165.003 290.996 164.851 293.878 164.279C294.31 164.197 294.707 164.466 294.8 164.886C294.882 165.307 294.613 165.716 294.193 165.809C291.16 166.429 288.242 166.581 285.524 166.253C281.755 165.821 278.628 164.524 276.236 162.386C273.109 159.663 269.492 157.502 265.501 155.959C262.619 154.861 260.379 154.3 258.839 154.3C255.653 154.3 253.576 154.394 252.678 154.569C248.897 155.375 248.454 157.326 248.454 158.729C248.454 160.96 248.991 162.374 250.064 162.923C250.589 163.204 251.056 163.286 251.499 163.169C251.546 163.157 251.605 163.145 251.651 163.145C255.957 162.935 260.204 163.519 264.288 164.898C267.555 166.043 271.032 167.784 274.626 170.086C278.978 172.937 283.914 174.386 289.293 174.386H304.345C305.838 174.386 307.192 174.047 308.37 173.369C309.899 172.458 310.307 171.184 309.677 169.385C308.452 166.288 306.445 164.536 303.528 164.033C301.486 163.683 299.736 163.881 298.324 164.618L297.11 165.062C296.702 165.202 296.259 165.003 296.118 164.594C295.967 164.185 296.177 163.741 296.585 163.601L297.705 163.192C299.339 162.351 301.416 162.105 303.796 162.503C307.238 163.087 309.712 165.225 311.135 168.836C312.034 171.371 311.357 173.393 309.163 174.713C307.728 175.531 306.118 175.94 304.345 175.94L304.321 175.916Z" fill="#222222"/>
<path d="M222.152 152.833C222.152 157.484 222.619 161.889 223.553 166.037C223.973 168.117 224.404 169.717 224.859 170.863L223.553 171.236C222.619 171.669 222.152 172.311 222.152 173.164C222.152 174.041 222.631 174.625 223.588 174.94C224.089 175.069 224.906 175.127 226.05 175.127H242.315C243.003 174.146 243.983 173.188 245.267 172.23C247.834 170.255 250.681 169.273 253.785 169.273C256.888 169.273 259.689 170.255 262.302 172.23C263.586 173.188 264.578 174.146 265.254 175.127H281.52C282.663 175.127 283.48 175.069 283.982 174.94C284.939 174.625 285.417 174.041 285.417 173.164C285.417 172.288 284.974 171.669 284.075 171.236L282.71 170.863C283.165 169.717 283.62 168.117 284.075 166.037C284.962 161.889 285.417 157.484 285.417 152.833C285.417 140.272 280.155 131.474 269.618 126.426C266.316 124.872 262.699 123.762 258.732 123.096L253.785 122.594C248.522 122.64 243.248 123.914 237.986 126.426C227.438 131.474 222.152 140.272 222.152 152.833Z" fill="white"/>
<path d="M281.52 175.916H265.255C264.998 175.916 264.765 175.788 264.613 175.589C263.983 174.689 263.05 173.766 261.836 172.867C259.374 171.009 256.656 170.062 253.773 170.062C250.891 170.062 248.149 171.009 245.722 172.867C244.497 173.778 243.564 174.689 242.934 175.589C242.794 175.799 242.549 175.916 242.292 175.916H226.027C224.813 175.916 223.95 175.846 223.378 175.706C222.059 175.274 221.359 174.385 221.359 173.17C221.359 172.364 221.674 171.242 223.203 170.53C223.238 170.506 223.273 170.495 223.32 170.483L224.626 170.109C225.035 169.992 225.467 170.226 225.583 170.646C225.7 171.055 225.467 171.488 225.047 171.605L223.798 171.955C223.005 172.341 222.9 172.796 222.9 173.159C222.9 173.544 223.005 173.941 223.798 174.199C224.043 174.257 224.685 174.35 226.015 174.35H241.884C242.595 173.427 243.564 172.504 244.766 171.605C247.449 169.536 250.483 168.496 253.75 168.496C257.017 168.496 260.004 169.548 262.735 171.616C263.936 172.504 264.905 173.427 265.617 174.35H281.485C282.816 174.35 283.457 174.257 283.749 174.187C284.484 173.941 284.589 173.556 284.589 173.17C284.589 172.808 284.496 172.352 283.749 171.967L282.454 171.616C282.045 171.499 281.8 171.079 281.905 170.658C282.022 170.237 282.442 169.992 282.862 170.109L284.227 170.483C284.227 170.483 284.321 170.518 284.367 170.53C285.838 171.242 286.141 172.352 286.141 173.159C286.141 174.362 285.441 175.262 284.169 175.671C283.551 175.823 282.687 175.893 281.474 175.893L281.52 175.916ZM224.265 169.934C223.926 169.934 223.611 169.712 223.518 169.373C222.094 164.407 221.371 158.845 221.371 152.839C221.371 144.94 223.541 138.327 227.835 133.162C228.104 132.835 228.594 132.789 228.932 133.057C229.259 133.338 229.305 133.828 229.037 134.156C224.988 139.028 222.935 145.326 222.935 152.839C222.935 158.693 223.635 164.115 225.023 168.941C225.14 169.349 224.906 169.782 224.486 169.899C224.416 169.922 224.346 169.934 224.276 169.934H224.265ZM283.236 169.934C283.166 169.934 283.096 169.934 283.014 169.899C282.606 169.782 282.36 169.349 282.477 168.929C283.901 163.975 284.624 158.553 284.624 152.828C284.624 146.693 283.259 141.353 280.552 136.983C280.33 136.621 280.435 136.142 280.809 135.908C281.17 135.686 281.649 135.791 281.882 136.165C284.729 140.792 286.176 146.401 286.176 152.828C286.176 158.705 285.429 164.267 283.971 169.361C283.877 169.7 283.562 169.922 283.224 169.922L283.236 169.934Z" fill="#222222"/>
<path d="M224.486 156.97C224.066 156.164 223.308 155.592 222.188 155.253C222.293 157.765 222.491 160.008 222.783 161.983C223.669 161.259 224.264 160.441 224.556 159.518C224.883 158.606 224.871 157.753 224.498 156.959M228.465 141.185C227.672 140.25 226.19 140.297 224.019 141.313C223.109 143.849 222.526 146.653 222.281 149.726C227.543 145.262 229.608 142.423 228.465 141.196V141.185Z" fill="#222222"/>
<path d="M285.291 155.26C284.218 155.588 283.459 156.16 283.016 156.978C282.619 157.773 282.596 158.614 282.922 159.537C283.249 160.448 283.856 161.266 284.731 162.002C285.058 159.409 285.244 157.165 285.291 155.272M283.459 141.297C281.277 140.281 279.795 140.234 279.014 141.169C277.94 142.396 280.005 145.235 285.233 149.699C284.999 146.707 284.416 143.903 283.459 141.286V141.297Z" fill="#222222"/>
<path d="M301.332 47.7842C304.214 48.5788 306.385 50.2613 307.843 52.8319C309.29 55.4025 309.617 58.125 308.835 60.9877C308.111 63.6284 306.63 65.6732 304.413 67.1338C304.226 67.2506 304.039 67.3792 303.829 67.496C301.251 68.9566 298.532 69.2954 295.65 68.5126C292.768 67.7297 290.609 66.0354 289.104 63.4532C287.657 60.8826 287.33 58.1601 288.112 55.2974C288.369 54.3743 288.707 53.533 289.127 52.7735C289.197 52.6683 289.267 52.5515 289.314 52.4346C290.458 50.8572 291.566 49.7355 292.651 49.0929L293.118 48.8008C295.732 47.3402 298.462 47.013 301.321 47.7959L301.332 47.7842Z" fill="white"/>
<path d="M303.832 68.2455C303.564 68.2455 303.295 68.1052 303.155 67.8482C302.945 67.4743 303.073 66.9952 303.447 66.7849C303.634 66.6797 303.809 66.5629 303.984 66.4577C306.072 65.1023 307.402 63.2328 308.091 60.7557C308.826 58.0799 308.522 55.6028 307.181 53.1958C305.815 50.7888 303.832 49.2464 301.137 48.5103C298.465 47.7742 295.968 48.078 293.517 49.4451L293.086 49.7138C292.105 50.3097 291.067 51.338 290.005 52.7985C289.947 52.927 289.877 53.0439 289.795 53.1724C289.55 53.5346 289.072 53.6281 288.722 53.3827C288.36 53.1374 288.267 52.6583 288.512 52.3078C288.558 52.2377 288.605 52.1559 288.64 52.0858C288.663 52.039 288.687 51.9923 288.722 51.9572C289.935 50.2747 291.102 49.1179 292.292 48.4051L292.747 48.1247C295.571 46.559 298.523 46.1968 301.568 47.0264C304.637 47.8676 306.982 49.6904 308.546 52.448C310.086 55.1938 310.448 58.1383 309.608 61.188C308.838 64.004 307.239 66.224 304.859 67.7781C304.66 67.9066 304.45 68.0351 304.24 68.1637C304.124 68.2338 303.984 68.2688 303.855 68.2688L303.832 68.2455Z" fill="#222222"/>
<path d="M253.167 34.9724C250.285 34.1779 247.566 34.5167 244.987 35.989C242.432 37.4612 240.763 39.6229 239.982 42.4856C239.258 45.1263 239.48 47.6385 240.647 50.0338C240.74 50.2324 240.845 50.4311 240.962 50.6414C242.42 53.2237 244.602 54.9062 247.473 55.6891C250.343 56.472 253.062 56.1448 255.675 54.6842C258.231 53.212 259.899 51.0504 260.681 48.1876C260.938 47.2646 261.078 46.3649 261.101 45.4885C261.101 45.36 261.101 45.2315 261.101 45.1029C260.926 43.1633 260.541 41.6326 259.934 40.5226L259.678 40.0318C258.172 37.4496 255.99 35.7553 253.132 34.9724H253.167Z" fill="white"/>
<path d="M240.974 51.3907C240.706 51.3907 240.437 51.2505 240.297 50.9934C240.169 50.7714 240.064 50.5611 239.959 50.3391C238.711 47.7919 238.466 45.0694 239.236 42.2417C240.076 39.192 241.884 36.8435 244.603 35.2777C247.357 33.712 250.297 33.3498 253.377 34.1911C256.423 35.0323 258.78 36.8551 260.39 39.6127L260.658 40.1385C261.312 41.342 261.72 42.9428 261.907 45.0109C261.907 45.0577 261.907 45.1044 261.907 45.1628C261.907 45.2446 261.907 45.3381 261.907 45.4199C261.93 45.8522 261.604 46.2144 261.172 46.2378C260.752 46.2846 260.378 45.934 260.355 45.5017C260.355 45.3615 260.355 45.2096 260.355 45.0694C260.192 43.2699 259.83 41.8561 259.293 40.8512L259.037 40.3488C257.648 37.9535 255.653 36.4228 252.981 35.675C250.285 34.9389 247.8 35.2427 245.396 36.6098C243.004 37.9885 241.488 39.9632 240.753 42.639C240.076 45.1161 240.274 47.4063 241.371 49.638C241.464 49.825 241.558 50.0119 241.663 50.1989C241.873 50.5728 241.744 51.0518 241.371 51.2622C241.254 51.3323 241.114 51.3673 240.986 51.3673L240.974 51.3907Z" fill="#222222"/>
<path d="M306.547 79.4268C304.015 64.5875 293.748 54.6907 275.72 49.7364C257.693 44.7822 243.808 48.0305 234.042 59.4813C229.141 65.195 226.061 71.3995 224.8 78.1181C221.487 78.6089 218.651 80.233 216.306 83.014C214.229 85.5028 212.642 88.7394 211.545 92.7472C209.13 101.557 213.646 109.503 225.08 116.619C230.81 120.194 236.749 122.882 242.921 124.693L265.639 130.944L271.566 132.124C276.362 132.884 280.878 133.222 285.113 133.141C298.555 132.884 306.477 128.35 308.893 119.54C309.99 115.532 310.293 111.945 309.791 108.743C309.208 105.156 307.598 102.305 304.984 100.19C307.306 93.7637 307.831 86.8582 306.547 79.4385V79.4268Z" fill="white"/>
<path d="M283.853 133.874C279.944 133.874 275.767 133.523 271.415 132.834L265.453 131.654C265.032 131.572 264.752 131.163 264.846 130.742C264.939 130.322 265.336 130.041 265.756 130.135L271.683 131.315C276.386 132.063 280.889 132.401 285.067 132.32C298.053 132.063 305.813 127.681 308.111 119.291C309.173 115.412 309.476 111.895 308.986 108.822C308.438 105.457 306.909 102.734 304.459 100.748C304.121 100.479 304.074 99.9885 304.342 99.6497C304.611 99.3108 305.101 99.2641 305.439 99.5328C308.205 101.765 309.908 104.803 310.527 108.565C311.04 111.86 310.737 115.599 309.616 119.689C307.108 128.826 298.858 133.593 285.102 133.862C284.693 133.862 284.273 133.874 283.853 133.874ZM242.886 125.414C242.816 125.414 242.746 125.414 242.665 125.379C236.457 123.568 230.39 120.822 224.637 117.223C212.923 109.944 208.255 101.624 210.764 92.4871C211.884 88.3975 213.541 85.0206 215.688 82.4617C218.162 79.5523 221.184 77.8113 224.672 77.2972C225.092 77.2387 225.489 77.5309 225.559 77.9515C225.617 78.3721 225.326 78.7694 224.906 78.8395C221.802 79.2952 219.107 80.8493 216.89 83.4666C214.894 85.8502 213.343 89.0284 212.281 92.896C209.982 101.286 214.416 109.021 225.477 115.891C231.113 119.42 237.052 122.096 243.12 123.872C243.528 123.989 243.773 124.421 243.645 124.842C243.551 125.18 243.236 125.402 242.898 125.402L242.886 125.414ZM305.556 98.8551C305.486 98.8551 305.416 98.8551 305.358 98.8318C304.938 98.7149 304.693 98.2943 304.809 97.8736C305.848 94.0177 306.361 90.0216 306.326 86.0138C306.303 79.8327 304.949 74.2241 302.301 69.3283C302.091 68.9544 302.231 68.4753 302.616 68.2767C302.989 68.0664 303.467 68.2183 303.666 68.5922C306.443 73.71 307.855 79.5756 307.878 86.0138C307.913 90.1618 307.388 94.2865 306.314 98.2943C306.221 98.6448 305.906 98.8668 305.568 98.8668L305.556 98.8551ZM225.291 76.7714C225.221 76.7714 225.151 76.7714 225.081 76.7363C224.672 76.6195 224.427 76.1871 224.544 75.7782C225.676 71.7937 227.333 67.9846 229.456 64.4325C232.758 58.9174 236.971 54.6058 241.965 51.6146C242.338 51.3926 242.816 51.5094 243.026 51.8833C243.248 52.2572 243.12 52.7246 242.758 52.9466C237.986 55.7976 233.96 59.9223 230.786 65.227C228.733 68.6623 227.134 72.3546 226.038 76.1988C225.944 76.5377 225.629 76.7597 225.291 76.7597V76.7714ZM289.244 55.9846C289.116 55.9846 288.976 55.9495 288.859 55.8794C284.985 53.6477 280.481 51.8249 275.499 50.4578C270.505 49.0907 265.709 48.3546 261.24 48.2845C260.809 48.2845 260.47 47.9223 260.47 47.4899C260.47 47.0576 260.867 46.7304 261.264 46.7188C265.861 46.7889 270.797 47.5367 275.907 48.9505C281.018 50.3643 285.638 52.2338 289.629 54.524C290.002 54.7343 290.131 55.2134 289.921 55.5873C289.781 55.8327 289.512 55.9729 289.244 55.9729V55.9846Z" fill="#222222"/>
<path d="M281.157 59.6298L275.58 58.0991L275.638 57.8888C275.825 57.2228 275.731 56.6152 275.37 56.0426C275.031 55.4584 274.553 55.0728 273.911 54.8975C273.269 54.7223 272.639 54.7924 272.067 55.1312C271.472 55.435 271.076 55.9258 270.901 56.5801L270.842 56.7904L265.265 55.2598C264.6 55.0728 263.993 55.1546 263.421 55.4935C262.826 55.7973 262.43 56.2997 262.243 56.9774C262.068 57.5967 262.161 58.2159 262.511 58.8235C262.826 59.4078 263.316 59.7817 263.97 59.9686L269.547 61.4993L268.509 65.2851L265.207 64.3737C264.565 64.1984 263.946 64.2919 263.363 64.6424C262.756 64.993 262.36 65.472 262.196 66.0913C262.01 66.7573 262.103 67.3883 262.441 67.9959C262.78 68.5684 263.27 68.9307 263.911 69.1059L267.214 70.0173L266.945 70.9755C266.77 71.5947 266.864 72.214 267.214 72.8216C267.529 73.4058 268.019 73.7797 268.672 73.9667C269.314 74.142 269.921 74.0602 270.516 73.733C271.122 73.3825 271.519 72.9034 271.682 72.2841L271.951 71.326L275.218 72.2257C275.883 72.4127 276.501 72.3425 277.073 72.0271C277.645 71.6648 278.018 71.1624 278.205 70.4964C278.38 69.8771 278.31 69.2695 277.995 68.6619C277.668 68.0543 277.178 67.657 276.513 67.4818L273.246 66.5821L274.284 62.7963L279.862 64.327C280.48 64.5022 281.099 64.4204 281.705 64.0933C282.312 63.7427 282.709 63.2637 282.872 62.6444C283.059 61.9667 282.977 61.3357 282.616 60.7632C282.265 60.1673 281.775 59.7934 281.157 59.6181V59.6298Z" fill="#222222"/>
<path d="M224.476 82.9771C223.589 82.3928 222.084 82.0073 219.96 81.832C218.968 81.7268 217.696 81.7619 216.121 81.9488C214.698 83.4211 213.508 85.1854 212.539 87.2186C213.998 86.5993 215.736 86.0618 217.755 85.6061C218.443 85.4542 220.123 85.1037 222.819 84.5545C224.884 84.1689 225.444 83.6431 224.476 82.9771Z" fill="#222222"/>
<path d="M210.868 102.168C213.529 98.8967 215.909 96.8402 217.997 95.9873C220.179 95.0642 220.669 94.3164 219.479 93.7438C218.277 93.1713 216.586 93.1129 214.392 93.5686C213.108 93.7906 211.685 94.2463 210.11 94.9356C209.806 97.2959 210.051 99.7029 210.868 102.168Z" fill="#222222"/>
<path d="M301.52 106.2C303.48 107.964 304.729 109.121 305.289 109.682C306.794 111.119 308.031 112.475 308.999 113.76C309.21 111.516 309.081 109.39 308.614 107.392C307.389 106.445 306.292 105.756 305.324 105.312C303.41 104.377 301.929 103.933 300.867 103.98C299.723 104.073 299.945 104.809 301.532 106.2H301.52Z" fill="#222222"/>
<path d="M299.827 118.512C301.169 120.276 302.149 123.256 302.756 127.462C304.646 125.885 306.104 123.945 307.143 121.643C306.186 120.3 305.194 119.178 304.156 118.278C302.511 116.736 301.029 115.93 299.699 115.825C298.38 115.696 298.427 116.596 299.827 118.5V118.512Z" fill="#222222"/>
<path d="M259.375 100.223C258.709 100.538 258.079 100.76 257.473 100.889C257.729 103.179 258.488 104.488 259.736 104.815C261.008 105.165 262.327 104.429 263.715 102.583C263.213 102.151 262.77 101.637 262.362 101.041L261.311 98.9844L259.386 100.223H259.375Z" fill="#FF5353"/>
<path d="M273.294 98.4568C273.318 96.19 272.034 94.3672 269.42 92.9768C268.23 92.2991 266.27 91.5863 263.528 90.8268C260.786 90.0907 258.732 89.6934 257.356 89.6467C254.38 89.5065 252.35 90.4295 251.276 92.4159C250.098 94.4958 249.958 96.3302 250.856 97.931C251.65 99.2981 252.98 100.245 254.87 100.759C255.232 100.864 255.605 100.934 256.002 100.969C256.48 101.004 256.971 100.969 257.461 100.887C258.067 100.759 258.709 100.525 259.362 100.221L261.288 98.9826L262.338 101.039C262.746 101.635 263.201 102.149 263.691 102.581C263.971 102.815 264.263 103.025 264.566 103.224C264.963 103.481 265.395 103.668 265.862 103.785C267.752 104.299 269.397 104.182 270.797 103.411C272.407 102.511 273.236 100.864 273.259 98.4451L273.294 98.4568Z" fill="white"/>
<path d="M260.389 105.686C260.109 105.686 259.841 105.651 259.561 105.569C258.149 105.195 257.239 103.91 256.842 101.748C256.551 101.76 256.27 101.76 255.99 101.748C255.535 101.701 255.115 101.619 254.707 101.503C252.63 100.93 251.113 99.8668 250.226 98.3128C249.188 96.4666 249.328 94.3517 250.635 92.0265C251.848 89.7714 254.147 88.6964 257.437 88.86C258.884 88.9184 260.961 89.3157 263.773 90.0752C266.597 90.858 268.58 91.5825 269.841 92.2952C272.699 93.8142 274.146 95.8941 274.111 98.4647C274.076 101.164 273.108 103.057 271.241 104.097C269.654 104.961 267.799 105.101 265.722 104.541C265.197 104.412 264.683 104.19 264.216 103.898C264.1 103.828 263.995 103.746 263.89 103.676C262.735 105.008 261.568 105.686 260.401 105.686H260.389ZM258.371 101.468C258.639 102.987 259.176 103.863 259.969 104.073C260.786 104.295 261.696 103.828 262.7 102.671C262.361 102.321 262.046 101.923 261.755 101.503L261.043 100.112L259.829 100.883C259.304 101.14 258.826 101.327 258.371 101.468ZM264.251 102.005C264.497 102.215 264.765 102.414 265.033 102.589C265.36 102.8 265.722 102.952 266.095 103.045C267.822 103.512 269.245 103.419 270.471 102.741C271.824 101.993 272.501 100.58 272.536 98.453C272.559 96.49 271.427 94.9242 269.07 93.674C267.915 93.0197 266.002 92.3186 263.341 91.5825C260.681 90.8697 258.662 90.4724 257.344 90.4257C254.66 90.3089 252.91 91.0683 251.977 92.786C250.926 94.6438 250.798 96.1979 251.557 97.5533C252.245 98.7451 253.4 99.5513 255.104 100.007C255.43 100.1 255.769 100.159 256.119 100.194C256.504 100.217 256.924 100.194 257.356 100.124C257.869 100.007 258.452 99.8084 259.059 99.5163L260.903 98.3244C261.089 98.2076 261.311 98.1725 261.521 98.231C261.731 98.2894 261.906 98.4296 262.011 98.6282L263.061 100.696C263.376 101.14 263.785 101.608 264.228 102.005H264.251Z" fill="#222222"/>
<path d="M261.16 90.4505C261.055 90.8361 261.218 91.3152 261.661 91.9111C262.163 92.5888 262.77 93.0211 263.493 93.2198C264.252 93.4301 265.022 93.3717 265.804 93.0445C266.48 92.7524 266.877 92.4252 266.982 92.0396C267.25 91.0581 266.41 90.2986 264.45 89.7611C262.536 89.2353 261.44 89.4574 261.171 90.4389L261.16 90.4505Z" fill="#222222"/>
<path d="M251.754 82.2696C251.031 82.071 250.354 82.1527 249.724 82.515C249.07 82.8772 248.639 83.4147 248.44 84.1274C248.242 84.8402 248.324 85.5646 248.709 86.2073C249.07 86.8499 249.607 87.2589 250.331 87.4575C251.054 87.6562 251.742 87.5744 252.396 87.2238C253.038 86.8616 253.458 86.3124 253.656 85.5646C253.843 84.8869 253.761 84.2092 253.411 83.5315C253.026 82.8889 252.477 82.4682 251.754 82.2696Z" fill="#222222"/>
<path d="M280.599 91.0282C280.237 90.3855 279.701 89.9766 278.977 89.7779C278.254 89.5793 277.589 89.6611 276.912 90.0116C276.259 90.4089 275.85 90.9581 275.663 91.6358C275.465 92.3719 275.535 93.0613 275.897 93.7039C276.282 94.3466 276.83 94.7672 277.554 94.9659C278.277 95.1645 278.954 95.0827 279.584 94.7205C280.237 94.3583 280.669 93.8091 280.879 93.073C281.066 92.3953 280.973 91.7059 280.599 91.0282Z" fill="#222222"/>
<path d="M258.755 106.985C255.954 107.499 253.854 108.819 252.442 110.946C250.167 114.346 249.805 117.875 251.38 121.532C251.707 122.303 252.465 123.705 253.656 125.739C254.589 127.339 255.161 128.601 255.371 129.536C255.616 131.032 255.954 132.434 256.363 133.742C256.386 133.801 256.409 133.859 256.421 133.894C256.444 133.999 256.479 134.116 256.549 134.233C257.693 137.598 259.373 140.414 261.59 142.669C262.208 143.335 262.897 143.943 263.644 144.504C268.241 148.079 273.678 148.827 279.944 146.747C282.476 145.918 284.261 144.41 285.288 142.237C286.198 140.262 286.42 138.019 285.941 135.507C285.778 134.806 285.591 134.14 285.381 133.509C285.09 133.404 284.681 133.474 284.133 133.731C283.573 133.964 283.153 134.023 282.861 133.918C281.612 133.871 280.574 133.801 279.722 133.696C278.124 133.485 277.214 133.076 276.98 132.445C276.98 129.08 276.91 126.603 276.759 125.002C276.385 121.497 275.533 118.401 274.203 115.725C272.5 112.336 270.131 109.859 267.086 108.282C264.332 106.868 261.555 106.436 258.755 106.973V106.985Z" fill="white"/>
<path d="M273.378 148.683C269.632 148.683 266.214 147.503 263.168 145.131C262.398 144.558 261.675 143.904 261.021 143.214C258.746 140.889 256.984 137.956 255.817 134.498C255.771 134.416 255.724 134.288 255.689 134.159C255.666 134.112 255.654 134.054 255.631 133.995C255.199 132.652 254.861 131.191 254.604 129.672C254.429 128.866 253.88 127.662 252.994 126.132C251.78 124.052 251.033 122.65 250.683 121.843C249.003 117.953 249.377 114.132 251.804 110.509C253.32 108.219 255.619 106.782 258.618 106.221C261.57 105.649 264.545 106.116 267.451 107.6C270.636 109.248 273.145 111.865 274.918 115.382C276.283 118.139 277.17 121.341 277.543 124.928C277.695 126.564 277.765 129.088 277.765 132.453C277.765 132.885 277.415 133.236 276.983 133.236C276.552 133.236 276.202 132.885 276.202 132.453C276.202 129.135 276.132 126.658 275.992 125.08C275.63 121.692 274.801 118.654 273.518 116.071C271.908 112.858 269.621 110.463 266.739 108.979C264.16 107.658 261.523 107.238 258.909 107.74C256.296 108.231 254.394 109.411 253.099 111.362C250.952 114.564 250.625 117.789 252.107 121.213C252.422 121.949 253.169 123.339 254.336 125.337C255.316 127.02 255.911 128.34 256.132 129.357C256.377 130.852 256.704 132.231 257.113 133.493C257.148 133.563 257.183 133.657 257.194 133.738C257.194 133.738 257.206 133.797 257.253 133.89C258.384 137.22 260.03 139.966 262.153 142.128C262.76 142.77 263.413 143.355 264.113 143.892C268.547 147.339 273.646 148.029 279.702 146.019C282.047 145.248 283.646 143.904 284.591 141.906C285.431 140.095 285.629 137.992 285.186 135.655C285.034 135.012 284.848 134.358 284.649 133.762C284.509 133.353 284.731 132.909 285.139 132.78C285.548 132.64 285.991 132.862 286.12 133.271C286.33 133.914 286.528 134.615 286.703 135.327C287.216 138.027 286.971 140.445 286.003 142.56C284.871 144.932 282.922 146.591 280.192 147.491C277.823 148.274 275.548 148.671 273.39 148.671L273.378 148.683Z" fill="#222222"/>
<path d="M290.148 76.8368C288.803 76.3577 288.29 75.5066 288.082 74.8703C287.35 72.6368 289.242 69.7577 289.45 69.4395C289.678 69.0964 290.144 69.0078 290.487 69.2359C290.829 69.4641 290.918 69.9305 290.69 70.2736C290.215 70.9846 289.071 73.1013 289.499 74.3995C289.651 74.8672 290.013 75.1874 290.602 75.4078C290.584 75.4011 291.385 75.5911 292.018 75.1487C292.556 74.7677 292.884 74.0252 292.991 72.918C293.031 72.5079 293.394 72.2023 293.813 72.2455C294.232 72.2887 294.527 72.6487 294.484 73.0682C294.33 74.6359 293.783 75.7564 292.858 76.392C291.626 77.2363 290.213 76.8602 290.157 76.8401L290.148 76.8368Z" fill="#222222"/>
<path d="M296.805 83.7345C296.114 83.3003 295.63 82.6195 295.522 81.845C295.414 81.0706 295.657 80.2597 296.264 79.3572C296.441 79.0921 296.841 79.0413 297.131 79.2327C297.428 79.4286 297.529 79.8047 297.349 80.0764C296.893 80.7533 296.713 81.3186 296.775 81.8073C296.872 82.5014 297.55 82.9376 298.172 83.0076C298.545 83.0496 298.822 82.967 299.035 82.4313C299.16 82.1339 299.516 82.0086 299.845 82.152C300.183 82.2999 300.339 82.6551 300.221 82.9571C299.744 84.1252 298.831 84.2753 298.153 84.1973C297.663 84.1459 297.205 83.9774 296.809 83.728L296.805 83.7345Z" fill="#222222"/>
</svg>
